<svg width="99" height="120" viewBox="0 0 99 120" fill="none" xmlns="http://www.w3.org/2000/svg">
<path d="M55.2195 100.593C54.8325 100.6 54.415 100.626 53.9725 100.67C49.2348 101.137 41.8852 103.568 41.8852 103.568L33.5264 115.722C33.2987 116.051 32.9683 116.295 32.587 116.416C32.2056 116.536 31.795 116.527 31.4194 116.389C24.9578 113.998 19.2878 110.962 14.5517 107.156C14.2562 106.919 14.0434 106.594 13.9436 106.229C13.8439 105.863 13.8625 105.476 13.9966 105.122C14.1002 104.851 14.2215 104.547 14.3604 104.219C15.1382 102.413 16.4958 99.9411 18.4527 98.7732C21.7319 96.8184 26.1304 99.4612 26.1304 99.4612C26.1304 99.4612 32.0055 90.8405 33.9336 88.6918C35.8617 86.5431 42.3462 83.8998 42.3462 83.8998L53.9334 92.0909C53.9334 92.0909 59.7745 100.52 55.2195 100.593Z" fill="#F8F8F8"/>
<path d="M95.9508 89.213C95.9368 90.6455 95.4399 92.0315 94.5404 93.1466C92.4295 95.7696 87.8435 99.9694 80.4896 99.3214C78.8058 99.1739 77.3248 98.0082 76.0245 96.1549C69.138 86.3547 67.2671 57.2896 67.2671 57.2896L76.7981 49.4666C76.7981 49.4666 86.1089 49.7947 89.5261 52.8537C91.0178 54.1893 92.5077 58.6188 93.6778 64.5137C94.2596 67.4446 94.7644 70.7392 95.148 74.1969C95.4541 76.9489 95.6833 79.8011 95.8179 82.6546C95.9241 84.8562 95.9671 87.0578 95.9508 89.213Z" fill="#F8F8F8"/>
<path d="M81.9995 100.183C81.4869 100.183 80.9606 100.16 80.4205 100.113C75.6367 99.6912 71.839 92.2866 69.1321 78.1051C67.1623 67.7851 66.4816 57.444 66.4751 57.3408C66.4668 57.2358 66.4795 57.1302 66.5124 57.0301C66.5453 56.9301 66.5977 56.8376 66.6667 56.7579C66.7357 56.6783 66.8198 56.6132 66.9141 56.5664C67.0085 56.5196 67.1112 56.492 67.2163 56.4853C67.3214 56.4785 67.4268 56.4927 67.5264 56.5271C67.626 56.5614 67.7177 56.6152 67.7963 56.6853C67.8749 56.7555 67.9388 56.8405 67.9842 56.9355C68.0297 57.0306 68.0557 57.1337 68.061 57.2389C68.0674 57.3412 68.7429 67.5951 70.6952 77.8196C73.1806 90.8332 76.6838 98.1884 80.5602 98.5298C87.5663 99.1455 91.9389 95.11 93.9221 92.6491C94.7083 91.6725 95.1432 90.4598 95.1566 89.2061C95.293 73.0402 91.8831 56.031 88.9956 53.4458C85.8347 50.6151 76.8622 50.2638 76.7719 50.2608C76.5613 50.2534 76.3622 50.1626 76.2185 50.0084C76.0748 49.8543 75.9983 49.6493 76.0057 49.4387C76.0131 49.228 76.1039 49.029 76.2581 48.8853C76.4122 48.7416 76.6172 48.665 76.8278 48.6724C77.22 48.6862 86.4667 49.0482 90.0555 52.262C93.6276 55.4604 96.8788 73.4211 96.7459 89.2194C96.7291 90.8319 96.1704 92.3919 95.1597 93.6484C93.13 96.1648 88.821 100.182 81.9995 100.183Z" fill="#371A45"/>
<path d="M95.8165 82.6546C92.8392 84.5762 87.6671 85.9583 85.6685 84.4507L85.9196 73.855L86.0486 68.5333C86.0486 68.5333 89.7862 65.7873 93.6777 64.5137C95.4759 63.9254 96.4787 66.5609 97.0648 69.8457C97.0717 69.8852 97.0781 69.9295 97.0871 69.9747C97.7481 73.7742 97.865 78.3842 98.0104 79.8785C98.0951 80.7638 97.1891 81.7666 95.8165 82.6546Z" fill="#F8F8F8"/>
<path d="M88.1416 85.8856C86.9806 85.8856 85.9421 85.6534 85.1888 85.0849C85.0239 84.9568 84.9162 84.7689 84.8887 84.562C84.8613 84.355 84.9164 84.1456 85.0422 83.9789C85.1679 83.8123 85.3542 83.7018 85.5607 83.6714C85.7673 83.641 85.9775 83.6931 86.1459 83.8164C87.5133 84.8484 91.5317 84.1724 94.746 82.3699C96.509 81.3809 97.2636 80.4254 97.2176 79.9554C97.1772 79.5418 97.1402 78.9234 97.0938 78.1374C96.9067 74.9915 96.4101 66.6353 94.509 65.3414C94.3228 65.215 94.1534 65.1939 93.9234 65.2691C90.2034 66.4869 86.5523 69.1469 86.5157 69.1736C86.4317 69.2372 86.336 69.2834 86.2339 69.3097C86.1319 69.3359 86.0257 69.3416 85.9214 69.3264C85.8172 69.3112 85.717 69.2754 85.6267 69.2212C85.5364 69.1669 85.4578 69.0952 85.3955 69.0103C85.3331 68.9254 85.2883 68.8289 85.2636 68.7265C85.2389 68.6241 85.2347 68.5178 85.2515 68.4138C85.2682 68.3098 85.3055 68.2102 85.3611 68.1207C85.4167 68.0312 85.4895 67.9537 85.5753 67.8926C85.7323 67.7773 89.4625 65.0572 93.4293 63.7586C94.1263 63.5306 94.8092 63.6235 95.403 64.0277C97.7534 65.6269 98.327 72.101 98.6801 78.0432C98.7256 78.8108 98.7613 79.4171 98.7992 79.8006C98.926 81.0958 97.7629 82.5006 95.5234 83.7566C93.5699 84.8518 90.5891 85.8856 88.1416 85.8856Z" fill="#371A45"/>
<g opacity="0.25">
<path d="M95.8175 82.6546C95.9233 84.8562 95.9693 87.0578 95.9517 89.2129C95.9377 90.6455 95.4408 92.0315 94.5413 93.1466C92.4304 95.7696 87.8444 99.9694 80.4905 99.3214C78.8066 99.1739 77.3257 98.0082 76.0254 96.1549C76.1467 91.8617 76.7461 91.547 77.2221 87.3751C77.7355 82.8532 78.617 79.9154 79.2057 79.2545L85.9202 73.855L86.2422 73.597C86.2422 73.597 86.48 76.1138 89.9312 75.9947C91.7028 75.9328 93.7019 75.2895 95.1476 74.1964C96.518 73.1584 97.3887 71.7149 97.0869 69.9738C97.7478 73.7733 97.8647 78.3833 98.0101 79.8776C98.0961 80.7638 97.1901 81.7666 95.8175 82.6546Z" fill="#371A45"/>
</g>
<path d="M96.2102 67.5301C94.9838 67.905 93.7428 68.3299 92.5551 68.8154C91.7407 69.1736 90.7973 69.53 90.1742 70.1247C90.1446 70.1535 90.1368 70.1742 90.114 70.1991C90.114 70.2146 90.1029 70.2094 90.0981 70.2253C90.0591 70.4205 90.0329 70.618 90.0199 70.8166C89.9472 72.0941 89.9859 73.419 90.0199 74.727C90.06 76.0394 90.1158 77.3523 90.1871 78.6658C89.9891 77.3658 89.8051 76.063 89.6354 74.7576C89.4742 73.4473 89.3052 72.15 89.2484 70.8015C89.2484 70.5865 89.2416 70.3384 89.273 70.1183C89.2859 69.9385 89.38 69.7442 89.4828 69.6023C90.1936 68.7328 91.1422 68.2968 92.0628 67.7709C93.2535 67.1431 94.4558 66.5953 95.6989 66.0771C96.7055 65.7017 97.237 67.1891 96.2119 67.5322L96.2102 67.5301Z" fill="#371A45"/>
<path d="M32.0475 117.295C31.7401 117.295 31.4352 117.241 31.1471 117.134C24.4545 114.659 18.7046 111.51 14.0567 107.775C13.6296 107.434 13.322 106.965 13.178 106.438C13.0341 105.91 13.0612 105.351 13.2556 104.84C13.9664 102.964 15.5346 99.5936 18.0479 98.0925C20.9259 96.3755 24.4326 97.7261 25.877 98.4287C27.2465 96.4322 31.6773 90.0205 33.3448 88.1625C35.3718 85.9037 41.7754 83.2751 42.0468 83.1641C42.2419 83.0843 42.4607 83.0852 42.6552 83.1668C42.8496 83.2483 43.0037 83.4037 43.0835 83.5988C43.1633 83.794 43.1624 84.0128 43.0808 84.2072C42.9993 84.4017 42.8439 84.5557 42.6488 84.6356C40.8926 85.3524 36.01 87.5742 34.5295 89.2237C32.6581 91.3088 26.8488 99.8245 26.7894 99.9101C26.6752 100.078 26.5012 100.195 26.3031 100.239C26.105 100.282 25.8977 100.248 25.7239 100.144C25.6848 100.12 21.687 97.7726 18.8628 99.4556C16.7627 100.709 15.3798 103.718 14.7425 105.401C14.6676 105.598 14.6573 105.814 14.713 106.018C14.7687 106.222 14.8876 106.403 15.0526 106.535C19.5676 110.162 25.1675 113.226 31.6988 115.642C31.9083 115.719 32.1377 115.725 32.3507 115.657C32.5637 115.59 32.7482 115.453 32.8748 115.269L41.2341 103.116C41.3324 102.973 41.4748 102.867 41.6395 102.812C42.0025 102.692 50.5862 99.8714 55.2087 99.797C55.8967 99.7858 56.0257 99.5416 56.0652 99.4612C56.6488 98.326 54.7499 94.6606 53.2827 92.5411C53.2185 92.4556 53.1722 92.358 53.1466 92.2541C53.121 92.1502 53.1166 92.0423 53.1338 91.9367C53.1509 91.8311 53.1892 91.73 53.2464 91.6396C53.3035 91.5492 53.3783 91.4712 53.4663 91.4104C53.5543 91.3495 53.6537 91.3071 53.7585 91.2856C53.8633 91.2641 53.9713 91.264 54.0762 91.2853C54.181 91.3065 54.2805 91.3488 54.3686 91.4094C54.4567 91.47 54.5317 91.5478 54.589 91.6381C55.2874 92.6461 58.7085 97.7949 57.4787 100.189C57.2043 100.724 56.592 101.366 55.234 101.388C51.278 101.451 43.8506 103.772 42.3908 104.241L34.1842 116.171C33.946 116.518 33.627 116.802 33.2547 116.997C32.8825 117.193 32.4681 117.296 32.0475 117.295Z" fill="#371A45"/>
<g opacity="0.25">
<path d="M55.5326 96.9568C55.5326 97.4526 55.2019 97.7283 54.8162 98.7198C54.6554 99.1322 54.3514 99.8439 53.9743 100.67C49.2365 101.137 41.8869 103.568 41.8869 103.568L33.5281 115.722C33.3005 116.051 32.97 116.295 32.5887 116.416C32.2073 116.536 31.7967 116.527 31.4211 116.389C24.9595 113.998 19.2895 110.962 14.5534 107.156C14.2579 106.919 14.0451 106.594 13.9454 106.229C13.8456 105.863 13.8642 105.476 13.9983 105.122C14.1019 104.851 14.2232 104.547 14.3621 104.219L16.4996 105.477C23.9262 109.519 29.3339 109.801 31.9522 104.889C31.9522 104.889 37.0206 98.0572 41.0682 95.2364C45.1158 92.4156 44.5697 87.9199 44.5697 87.9199L54.3213 95.7429C54.6511 96.0203 55.5326 96.461 55.5326 96.9568Z" fill="#371A45"/>
</g>
<path d="M41.9803 104.009C41.9274 104.009 41.8748 104.003 41.8233 103.99C33.7548 102.029 28.8734 95.7154 28.6696 95.4475C28.617 95.3785 28.5785 95.2997 28.5563 95.2158C28.5342 95.1319 28.5288 95.0444 28.5404 94.9583C28.552 94.8723 28.5805 94.7894 28.6242 94.7144C28.6678 94.6394 28.7259 94.5737 28.7949 94.5211C28.864 94.4685 28.9427 94.43 29.0267 94.4078C29.1106 94.3857 29.1981 94.3803 29.2841 94.3919C29.3701 94.4035 29.453 94.432 29.5281 94.4757C29.6031 94.5194 29.6688 94.5774 29.7214 94.6464C29.7747 94.7157 34.54 100.859 42.1355 102.706C42.2927 102.744 42.4306 102.838 42.5229 102.971C42.6153 103.103 42.6557 103.266 42.6366 103.426C42.6174 103.587 42.5401 103.735 42.4191 103.842C42.2982 103.95 42.142 104.009 41.9803 104.009Z" fill="#371A45"/>
<path d="M25.9239 86.946C25.9239 86.946 32.1709 85.6637 37.1215 82.0268L24.9551 82.9534" fill="#F8F8F8"/>
<g opacity="0.25">
<path d="M25.9239 86.946C25.9239 86.946 32.1709 85.6637 37.1215 82.0268L24.9551 82.9534" fill="#371A45"/>
</g>
<path d="M25.9226 87.7406C25.7259 87.7403 25.5363 87.6671 25.3905 87.5351C25.2447 87.403 25.153 87.2216 25.1332 87.0259C25.1134 86.8302 25.1669 86.6342 25.2833 86.4756C25.3997 86.3171 25.5708 86.2073 25.7635 86.1677C25.8241 86.1552 31.9052 84.8725 36.6507 81.3865C36.8207 81.2663 37.0312 81.2176 37.2367 81.251C37.4422 81.2844 37.6265 81.3971 37.7498 81.5649C37.873 81.7327 37.9255 81.9422 37.896 82.1483C37.8664 82.3544 37.7571 82.5407 37.5915 82.667C32.5605 86.365 26.3453 87.6705 26.083 87.7243C26.0302 87.7352 25.9765 87.7407 25.9226 87.7406Z" fill="#371A45"/>
<path d="M77.2941 105.184L68.6666 116.458C66.5166 119.267 62.5666 120.014 59.5763 118.124C56.9232 116.447 54.6816 113.315 53.3022 110.014C52.2667 107.543 51.7155 104.976 51.8303 102.845C51.8768 102.092 52.1297 101.366 52.5613 100.747L53.4475 99.4539C53.4475 99.4539 45.6882 97.0889 44.0176 84.9839V81.8238C44.0176 81.8238 39.9782 81.555 39.6828 81.0283C39.3873 80.5015 35.6523 67.6475 35.6523 67.6475C35.6523 67.6475 40.7122 59.4164 47.9844 56.2232C51.4132 54.7182 56.2021 54.1407 60.303 53.9489C64.9002 53.7339 68.6356 54.0083 68.6356 54.0083L75.1011 53.6669C75.1011 53.6669 80.5995 55.2338 83.5369 60.4476C86.4742 65.6613 87.3583 74.8668 84.7138 79.5586C88.1499 91.2469 86.6755 100.32 77.2941 105.184Z" fill="#F8F8F8"/>
<path d="M63.1666 119.949C61.746 119.953 60.3536 119.552 59.1521 118.794C54.0351 115.556 50.7697 107.767 51.0371 102.802C51.092 101.904 51.3929 101.037 51.907 100.298L52.2403 99.8116C49.9991 98.722 44.6133 95.1035 43.2313 85.0918C43.2261 85.0559 43.2236 85.0197 43.2236 84.9834V82.5621C39.4572 82.2512 39.1562 81.7133 38.9906 81.4161C38.6965 80.8894 36.2945 72.7026 34.8888 67.8711C34.8578 67.7647 34.8495 67.653 34.8643 67.5431C34.8791 67.4333 34.9168 67.3278 34.9748 67.2334C35.1868 66.8894 40.251 58.7542 47.6655 55.4978C55.0336 52.2616 68.1387 53.1784 68.6926 53.2188C68.9012 53.2362 69.0945 53.3352 69.2305 53.4943C69.3665 53.6534 69.4343 53.8597 69.4191 54.0685C69.4038 54.2773 69.3068 54.4716 69.1491 54.6093C68.9915 54.747 68.7858 54.8168 68.5769 54.8038C68.4449 54.7943 55.3096 53.8758 48.304 56.9538C42.1081 59.6748 37.4839 66.3072 36.5155 67.7761C37.8412 72.3289 39.8872 79.2571 40.3322 80.5149C40.8848 80.7148 42.6293 80.9384 44.0707 81.0347C44.2718 81.0481 44.4604 81.1375 44.5981 81.2847C44.7358 81.432 44.8124 81.626 44.8124 81.8277V84.9314C46.4112 96.3535 53.6068 98.6755 53.6795 98.6975C53.7988 98.7338 53.908 98.7978 53.998 98.8842C54.088 98.9706 54.1565 99.0769 54.1977 99.1947C54.239 99.3124 54.252 99.4382 54.2356 99.5619C54.2192 99.6856 54.174 99.8037 54.1035 99.9066L53.2177 101.199C52.8687 101.697 52.6632 102.281 52.6234 102.888C52.3796 107.403 55.4833 114.592 60.0009 117.452C62.6085 119.102 66.1371 118.453 68.0342 115.975L76.6635 104.702C76.7346 104.61 76.8252 104.534 76.9288 104.48C85.2708 100.156 87.5662 92.078 83.9516 79.7834C83.9216 79.6815 83.9124 79.5746 83.9244 79.4691C83.9364 79.3635 83.9695 79.2615 84.0217 79.1689C86.3742 74.9958 85.8032 66.0883 82.8461 60.8397C80.1121 55.9867 74.934 54.4464 74.8833 54.4327C74.6806 54.3748 74.5093 54.2388 74.4069 54.0546C74.3045 53.8703 74.2795 53.653 74.3374 53.4503C74.3953 53.2477 74.5313 53.0763 74.7155 52.9739C74.8997 52.8716 75.1171 52.8466 75.3197 52.9045C75.5571 52.972 81.1678 54.6245 84.2307 60.0605C87.0975 65.1487 88.2331 74.4884 85.5675 79.6505C87.34 85.8086 87.6711 90.8736 86.5806 95.1306C85.3904 99.7746 82.4431 103.366 77.8185 105.809L69.2971 116.943C67.799 118.898 65.4916 119.949 63.1666 119.949Z" fill="#371A45"/>
<path d="M49.8976 69.9738H66.6586C67.3802 69.9738 68.0722 70.2604 68.5824 70.7707C69.0926 71.2809 69.3793 71.9729 69.3793 72.6944V82.8425C69.3793 83.5524 69.1018 84.2342 68.6062 84.7424C68.1105 85.2506 67.4358 85.5449 66.7262 85.5627L49.9651 85.9785C49.6023 85.9874 49.2413 85.9237 48.9034 85.791C48.5656 85.6583 48.2577 85.4594 47.9979 85.2059C47.738 84.9524 47.5316 84.6495 47.3906 84.3151C47.2496 83.9806 47.177 83.6213 47.177 83.2583V72.6944C47.177 71.9729 47.4636 71.2809 47.9739 70.7707C48.4841 70.2604 49.1761 69.9738 49.8976 69.9738Z" fill="#F8F8F8"/>
<path d="M49.8948 86.7748C48.963 86.7739 48.0697 86.4031 47.4111 85.7439C46.7525 85.0847 46.3826 84.191 46.3826 83.2591V72.6944C46.3837 71.7625 46.7544 70.869 47.4134 70.21C48.0724 69.551 48.9659 69.1803 49.8978 69.1792H66.6589C67.5908 69.1803 68.4843 69.551 69.1433 70.21C69.8023 70.869 70.173 71.7625 70.1741 72.6944V82.8425C70.1793 83.7612 69.8225 84.6451 69.1809 85.3028C68.5394 85.9605 67.6647 86.3391 66.7461 86.3569L49.9851 86.7727C49.955 86.7741 49.9249 86.7748 49.8948 86.7748ZM49.8978 70.7685C49.3872 70.769 48.8977 70.9721 48.5366 71.3332C48.1755 71.6943 47.9724 72.1838 47.9719 72.6944V83.2591C47.9718 83.5161 48.0231 83.7705 48.1229 84.0074C48.2226 84.2442 48.3688 84.4587 48.5527 84.6382C48.7367 84.8177 48.9546 84.9585 49.1939 85.0524C49.4331 85.1464 49.6886 85.1915 49.9456 85.1851L66.7066 84.7693C67.21 84.7596 67.6894 84.5521 68.0409 84.1916C68.3925 83.8312 68.5881 83.3468 68.5853 82.8433V72.6953C68.5846 72.1846 68.3814 71.6951 68.0203 71.334C67.6591 70.973 67.1695 70.7699 66.6589 70.7693L49.8978 70.7685Z" fill="#371A45"/>
<path d="M45.0675 70.1574H61.8286C62.5502 70.1575 63.2422 70.4443 63.7524 70.9545C64.2626 71.4648 64.5492 72.1569 64.5492 72.8785V83.0265C64.5493 83.7364 64.2719 84.4183 63.7762 84.9265C63.2805 85.4347 62.6058 85.7291 61.8961 85.7467L45.1351 86.1625C44.7722 86.1715 44.4112 86.1077 44.0733 85.975C43.7355 85.8424 43.4276 85.6434 43.1678 85.3899C42.908 85.1365 42.7015 84.8336 42.5605 84.4991C42.4196 84.1646 42.3469 83.8053 42.3469 83.4423V72.8785C42.3469 72.5211 42.4172 72.1673 42.5539 71.8372C42.6906 71.5071 42.891 71.2071 43.1436 70.9544C43.3963 70.7017 43.6962 70.5013 44.0263 70.3645C44.3564 70.2278 44.7102 70.1574 45.0675 70.1574Z" fill="#F8F8F8"/>
<path d="M56.6171 86.6493C56.4158 86.6492 56.2226 86.5705 56.0786 86.4299C55.9346 86.2893 55.8513 86.0979 55.8465 85.8968C55.813 84.5341 55.7725 82.3987 55.8117 81.2983C54.6034 80.9973 50.9789 80.5179 47.7221 80.1803C47.5384 80.1614 47.3677 80.0772 47.2409 79.943C47.1141 79.8089 47.0396 79.6337 47.031 79.4493L46.5903 70.1935C46.5831 70.091 46.5964 69.9881 46.6295 69.8908C46.6626 69.7935 46.7148 69.7038 46.7831 69.627C46.8514 69.5501 46.9343 69.4877 47.027 69.4434C47.1197 69.399 47.2204 69.3737 47.323 69.3688C47.4257 69.3639 47.5283 69.3795 47.6248 69.4148C47.7213 69.4501 47.8098 69.5044 47.8851 69.5744C47.9604 69.6444 48.0209 69.7287 48.0631 69.8224C48.1053 69.9161 48.1284 70.0173 48.131 70.12L48.5403 78.7149C56.6841 79.5796 57.0247 80.053 57.2311 80.3394C57.2994 80.4335 57.347 80.5409 57.3708 80.6547C57.3946 80.7684 57.394 80.886 57.3691 80.9995C57.3162 81.3362 57.3365 83.7386 57.3885 85.8585C57.3935 86.063 57.317 86.261 57.176 86.4092C57.035 86.5573 56.8409 86.6433 56.6364 86.6484L56.6171 86.6493ZM55.8633 80.6671C55.8594 80.6839 55.8564 80.7006 55.8538 80.7174C55.8568 80.6985 55.8598 80.6817 55.8633 80.6654V80.6671Z" fill="#371A45"/>
<path d="M45.0657 86.9585C44.1338 86.9577 43.2403 86.5869 42.5816 85.9277C41.923 85.2684 41.553 84.3747 41.553 83.4428V72.8781C41.5541 71.9461 41.9248 71.0526 42.5838 70.3936C43.2428 69.7347 44.1363 69.3639 45.0682 69.3628H61.8293C62.7612 69.3639 63.6547 69.7347 64.3137 70.3936C64.9727 71.0526 65.3434 71.9461 65.3445 72.8781V83.0261C65.3497 83.9448 64.9929 84.8287 64.3514 85.4864C63.7098 86.1441 62.8352 86.5228 61.9166 86.5405L45.1555 86.9563L45.0657 86.9585ZM45.0682 70.9521C44.5576 70.9527 44.068 71.1557 43.7068 71.5168C43.3457 71.8778 43.1425 72.3674 43.1418 72.8781V83.4428C43.1419 83.6998 43.1933 83.9541 43.2931 84.191C43.393 84.4278 43.5392 84.6422 43.7231 84.8217C43.9071 85.0011 44.1251 85.142 44.3643 85.2359C44.6035 85.3299 44.8591 85.375 45.116 85.3687L61.877 84.9529C62.3804 84.9432 62.8597 84.7357 63.2112 84.3752C63.5627 84.0148 63.7582 83.5304 63.7553 83.0269V72.8789C63.7547 72.3683 63.5516 71.8787 63.1905 71.5177C62.8295 71.1566 62.3399 70.9535 61.8293 70.9529L45.0682 70.9521Z" fill="#371A45"/>
<path d="M64.0234 79.9197L63.9619 81.0833C63.9423 81.446 63.7878 81.7882 63.5289 82.0427C63.2699 82.2973 62.9251 82.4459 62.5622 82.4593L41.2367 83.2196L11.7597 84.2731C11.5683 84.2799 11.3775 84.2488 11.1981 84.1816C11.0188 84.1144 10.8545 84.0125 10.7146 83.8816C10.5748 83.7508 10.4622 83.5936 10.3833 83.4191C10.3043 83.2446 10.2606 83.0562 10.2547 82.8648L10.2173 81.6552C10.2101 81.4303 10.2555 81.2067 10.35 81.0024C10.4444 80.7981 10.5852 80.6186 10.7612 80.4783H10.7638C11.0064 80.2798 11.3076 80.1668 11.6208 80.1567L41.0187 79.1363H41.0781L62.5205 78.3915C62.7219 78.3845 62.9226 78.4195 63.1098 78.4941C63.297 78.5688 63.4666 78.6815 63.6079 78.8252C63.7492 78.9689 63.8591 79.1404 63.9307 79.3288C64.0022 79.5173 64.0338 79.7185 64.0234 79.9197Z" fill="#BCC4CC"/>
<g opacity="0.61">
<path d="M64.0234 79.9197L63.9804 80.7264C63.8984 80.4042 63.7087 80.1197 63.4428 79.9201C63.1768 79.7205 62.8507 79.6178 62.5184 79.6291L41.0991 80.3738L41.0686 79.1354L62.5218 78.3907C62.7232 78.3838 62.9238 78.4189 63.1109 78.4937C63.298 78.5685 63.4675 78.6814 63.6087 78.8252C63.7499 78.9689 63.8596 79.1405 63.931 79.3289C64.0024 79.5173 64.0339 79.7185 64.0234 79.9197Z" fill="#CEB7FF"/>
</g>
<path d="M41.2815 83.1108L41.233 83.1065L10.7643 80.4796H10.7618L9.60505 77.9478L0.808507 58.7047C0.695889 58.4597 0.651008 58.189 0.678536 57.9208C0.706064 57.6525 0.804995 57.3966 0.965028 57.1795L1.6483 56.2494C1.78144 56.0697 1.95277 55.9218 2.14996 55.8163C2.34715 55.7108 2.56529 55.6503 2.78866 55.6393L28.3256 54.2882C29.173 54.2429 30.0132 54.4659 30.7265 54.9257C31.4398 55.3854 31.99 56.0584 32.2988 56.8489L32.3517 56.9813L41.0192 79.1397L41.1689 81.4161L41.2815 83.1108Z" fill="#BCC4CC"/>
<g opacity="0.61">
<path d="M41.0433 79.5044L32.7396 58.2778C32.4307 57.4873 31.8805 56.8144 31.1672 56.3547C30.4539 55.8949 29.6138 55.6718 28.7663 55.7171L3.22942 57.0695C3.00604 57.0809 2.788 57.1419 2.59102 57.2478C2.39404 57.3538 2.22304 57.5021 2.09034 57.6822L1.40707 58.6119C1.24215 58.8353 1.14229 59.1001 1.11854 59.3768L0.808507 58.7047C0.695889 58.4597 0.651008 58.189 0.678536 57.9208C0.706064 57.6525 0.804995 57.3966 0.965028 57.1795L1.6483 56.2494C1.78144 56.0697 1.95277 55.9218 2.14996 55.8163C2.34715 55.7108 2.56529 55.6503 2.78866 55.6393L28.3256 54.2882C29.173 54.2429 30.0132 54.4659 30.7265 54.9257C31.4398 55.3854 31.99 56.0584 32.2988 56.8489L41.0192 79.1397L41.0433 79.5044Z" fill="#CEB7FF"/>
</g>
<path d="M11.7071 84.9482C11.1551 84.9475 10.625 84.7321 10.2288 84.3477C9.83268 83.9632 9.60152 83.4398 9.58422 82.888L9.54638 81.6772C9.52942 81.1148 9.73564 80.5686 10.12 80.1577C10.5044 79.7468 11.0357 79.5047 11.5979 79.4842L62.4981 77.7164C62.7926 77.7062 63.0861 77.7574 63.3599 77.8667C63.6336 77.976 63.8817 78.141 64.0882 78.3513C64.2948 78.5615 64.4554 78.8124 64.5599 79.0881C64.6643 79.3637 64.7103 79.6581 64.6949 79.9524L64.6343 81.116C64.609 81.6477 64.3842 82.1503 64.0048 82.5235C63.6253 82.8968 63.1191 83.1132 62.5871 83.1297L11.785 84.9443C11.7592 84.9478 11.7329 84.9482 11.7071 84.9482ZM11.6448 80.8301C11.4383 80.8377 11.2432 80.9266 11.102 81.0775C10.9608 81.2284 10.885 81.4289 10.891 81.6355L10.9284 82.8463C10.9316 82.9492 10.9551 83.0505 10.9976 83.1442C11.0401 83.238 11.1006 83.3224 11.1758 83.3927C11.251 83.463 11.3394 83.5177 11.4358 83.5538C11.5322 83.5898 11.6348 83.6064 11.7377 83.6027L62.5393 81.7881C62.7349 81.782 62.9211 81.7024 63.0605 81.5652C63.2 81.4279 63.2826 81.2431 63.2918 81.0476L63.3529 79.8841C63.359 79.7759 63.3422 79.6676 63.3038 79.5662C63.2653 79.4649 63.206 79.3728 63.1297 79.2958C63.0544 79.2177 62.9634 79.1565 62.8626 79.1163C62.7619 79.076 62.6537 79.0576 62.5454 79.0623L11.6448 80.8301Z" fill="#371A45"/>
<path d="M41.2812 83.7825C41.1106 83.7823 40.9465 83.7173 40.822 83.6007C40.6976 83.484 40.6221 83.3244 40.6108 83.1542L40.3554 79.2842L31.6728 57.0901C31.4154 56.4314 30.957 55.8705 30.3626 55.4872C29.7682 55.104 29.0681 54.9178 28.3618 54.9552L2.82533 56.3058C2.70122 56.3122 2.58009 56.3461 2.47075 56.4052C2.36141 56.4642 2.26661 56.5469 2.19323 56.6472L1.50953 57.5764C1.42111 57.6972 1.36653 57.8394 1.35141 57.9883C1.3363 58.1372 1.36119 58.2875 1.42353 58.4235L11.3755 80.1993C11.4122 80.2796 11.4327 80.3663 11.4359 80.4545C11.4391 80.5428 11.4248 80.6308 11.394 80.7135C11.3632 80.7962 11.3164 80.8721 11.2562 80.9367C11.1961 81.0014 11.1238 81.0535 11.0435 81.0902C10.9632 81.1269 10.8765 81.1474 10.7882 81.1506C10.7 81.1538 10.612 81.1396 10.5293 81.1088C10.4466 81.0779 10.3707 81.0311 10.3061 80.971C10.2414 80.9108 10.1893 80.8386 10.1526 80.7583L0.197591 58.9838C0.0358422 58.6298 -0.0283954 58.2389 0.01152 57.8517C0.0514353 57.4645 0.194056 57.095 0.424633 56.7814L1.10833 55.8517C1.29944 55.5911 1.54614 55.3763 1.83054 55.2229C2.11495 55.0695 2.42993 54.9812 2.75266 54.9646L28.2892 53.6136C29.278 53.5606 30.2583 53.8209 31.0907 54.3574C31.923 54.8938 32.5649 55.6792 32.925 56.6016L41.6454 78.8925C41.6698 78.9567 41.6843 79.0243 41.6884 79.0929L41.9507 83.0656C41.9566 83.1538 41.9451 83.2422 41.9168 83.3258C41.8885 83.4094 41.844 83.4867 41.7858 83.5531C41.7276 83.6195 41.6569 83.6738 41.5777 83.7129C41.4985 83.7519 41.4123 83.775 41.3242 83.7807C41.3113 83.782 41.2963 83.7825 41.2812 83.7825Z" fill="#371A45"/>
<g opacity="0.25">
<path d="M41.2369 83.2209L11.7599 84.2744C11.5685 84.2812 11.3777 84.2501 11.1983 84.1829C11.019 84.1157 10.8547 84.0138 10.7148 83.8829C10.575 83.7521 10.4624 83.5949 10.3835 83.4204C10.3045 83.2459 10.2608 83.0575 10.2549 82.8661L10.2175 81.6565C10.2103 81.4316 10.2557 81.208 10.3502 81.0037C10.4446 80.7994 10.5854 80.6199 10.7614 80.4796L9.60474 77.9478C23.2788 77.6038 31.8788 72.6364 30.9457 59.9694V56.2232L32.3514 56.9792L41.0189 79.1376H41.0783C41.1114 79.9486 41.1423 80.7174 41.1686 81.4166C41.1931 82.047 41.215 82.6176 41.2326 83.1091C41.2348 83.1461 41.2348 83.1835 41.2369 83.2209Z" fill="#371A45"/>
</g>
<path d="M14.8183 85.167C14.8183 85.167 16.104 80.2822 21.283 81.125C26.4619 81.9678 27.6737 87.1119 24.0376 88.985C20.4015 90.8581 8.83186 90.5644 10.3007 81.3822C10.3007 81.3839 10.7411 84.0649 14.8183 85.167Z" fill="#F8F8F8"/>
<g opacity="0.25">
<path d="M24.0368 88.9859C21.5247 90.2798 15.2265 90.5395 12.0574 87.5493C15.1272 88.371 18.6665 87.9702 20.3994 87.0763C22.8504 85.8138 23.099 83.0656 21.4129 81.1504C26.4792 82.0599 27.6423 87.1283 24.0368 88.9859Z" fill="#371A45"/>
</g>
<path d="M19.2769 90.6913C16.8392 90.6913 14.1839 90.1392 12.2554 88.7421C10.6463 87.5764 8.86481 85.3317 9.51669 81.2601C9.54641 81.0738 9.64149 80.9041 9.78488 80.7815C9.92828 80.6589 10.1106 80.5914 10.2993 80.591C10.4878 80.5904 10.6703 80.6569 10.8143 80.7785C10.9583 80.9002 11.0543 81.069 11.0853 81.2549C11.0995 81.3293 11.4852 83.1645 14.3215 84.1789C15.1454 82.2353 17.3315 79.6764 21.411 80.3416C24.3496 80.821 26.4931 82.6765 26.872 85.0686C27.173 86.9799 26.227 88.7515 24.402 89.692C23.2226 90.3004 21.3267 90.6913 19.2769 90.6913ZM11.0638 84.0748C11.3085 85.4762 12.018 86.608 13.1876 87.4551C16.2079 89.6429 21.4995 89.4008 23.6741 88.2803C24.888 87.655 25.4968 86.5474 25.302 85.3175C25.0974 84.025 23.8886 82.357 21.1551 81.9111C16.7399 81.19 15.6322 85.1984 15.587 85.3691C15.5604 85.4705 15.5139 85.5656 15.4504 85.6489C15.3868 85.7322 15.3074 85.8022 15.2167 85.8547C15.1261 85.9072 15.0259 85.9412 14.922 85.9549C14.8181 85.9685 14.7125 85.9615 14.6113 85.9342C12.9498 85.4848 11.8241 84.7856 11.0638 84.0748Z" fill="#371A45"/>
<path d="M74.1786 73.5273C73.8875 75.9912 72.8211 78.3821 71.2894 79.5568L64.0259 77.1217C64.0259 77.1217 62.3093 79.1049 57.9856 78.6641C53.662 78.2234 51.6775 73.8443 51.6775 73.8443C51.6775 73.8443 49.8328 77.6743 47.6007 76.1319C46.9922 75.7109 46.6976 75.1927 46.6022 74.6509C46.4766 73.9457 46.6817 73.1984 46.9617 72.5706C47.3004 71.8256 47.7766 71.1512 48.3652 70.5827L52.504 66.508C55.9926 61.9177 60.8782 65.2231 64.2563 67.1689H72.5205C74.0088 68.6434 74.465 71.1193 74.1786 73.5273Z" fill="#F8F8F8"/>
<path d="M71.2892 80.3528C71.2033 80.3521 71.1181 80.3376 71.0368 80.3098L64.2118 78.0221C63.415 78.6551 61.4327 79.8144 57.9037 79.4549C54.6598 79.1242 52.6358 76.85 51.6566 75.3931C51.1243 76.1172 50.3279 76.9411 49.3346 77.2047C48.5886 77.4025 47.8331 77.2563 47.1489 76.7837C45.7011 75.7827 45.3773 74.1706 46.2365 72.2446C46.6158 71.4093 47.1488 70.6526 47.8077 70.0142L51.9069 65.98C55.5985 61.1833 60.6523 64.1404 64.0003 66.0991L64.4707 66.3734H72.5195C72.7288 66.3734 72.9298 66.456 73.0785 66.6035C74.4854 67.9958 75.1971 70.3045 75.0315 72.9374C74.8406 75.9689 73.5614 78.8146 71.773 80.1868C71.6344 80.2939 71.4644 80.3522 71.2892 80.3528ZM64.0256 76.3288C64.1115 76.3293 64.1968 76.3438 64.278 76.3718L71.1151 78.6637C72.3758 77.476 73.2956 75.2043 73.4444 72.8411C73.5734 70.8149 73.1107 69.0609 72.1729 67.9661H64.2557C64.1165 67.9662 63.9797 67.9296 63.8592 67.8599C63.6442 67.7361 63.4228 67.6066 63.1962 67.4729C59.1064 65.08 55.7683 63.5251 53.1341 66.99C53.1112 67.0205 53.086 67.0492 53.0589 67.076L48.9197 71.1494C48.4025 71.6488 47.9837 72.2408 47.6851 72.8948C46.8901 74.6767 47.7329 75.2598 48.0502 75.4791C48.4467 75.7535 48.7382 75.7199 48.9244 75.6718C49.8416 75.431 50.7235 73.987 50.96 73.5003C51.0258 73.3644 51.129 73.2501 51.2574 73.1707C51.3858 73.0913 51.5342 73.0502 51.6852 73.0521C51.8361 73.054 51.9834 73.0988 52.1098 73.1814C52.2362 73.264 52.3364 73.3808 52.3988 73.5183C52.4165 73.5566 54.2594 77.4885 58.0637 77.8764C61.8679 78.2642 63.4094 76.6208 63.4241 76.6044C63.4986 76.5179 63.5909 76.4485 63.6948 76.4009C63.7986 76.3534 63.9114 76.3288 64.0256 76.3288Z" fill="#371A45"/>
<path d="M50.9799 73.4624L53.9349 69.7408L52.3723 74.2283C52.3375 74.3282 52.2834 74.4203 52.213 74.4994C52.1426 74.5784 52.0574 74.6428 51.9621 74.6889C51.8668 74.7349 51.7634 74.7618 51.6577 74.7679C51.5521 74.774 51.4463 74.7593 51.3463 74.7245C50.8277 74.5551 50.6359 73.8812 50.9799 73.4624Z" fill="#371A45"/>
<path d="M63.3005 76.7984L65.1741 74.8647L64.7509 77.4481L63.3005 76.7984Z" fill="#371A45"/>
<g opacity="0.25">
<path d="M74.1782 73.5273C73.8871 75.9912 72.8207 78.382 71.2891 79.5568L64.0255 77.1217C64.0255 77.1217 62.3089 79.1049 57.9852 78.6641C53.6616 78.2234 51.6771 73.8442 51.6771 73.8442C51.6771 73.8442 49.8324 77.6743 47.6003 76.1318C46.9918 75.7109 46.6973 75.1927 46.6018 74.6509L46.8465 74.4062C46.8465 74.4062 48.4994 75.5079 50.2998 73.0466C52.0628 70.6356 54.3547 68.6124 54.4472 68.5316C54.39 68.6726 52.5982 73.1506 56.2102 75.2486C59.8837 77.3793 64.3286 71.5394 64.3286 71.5394C64.3286 71.5394 66.9731 73.8533 73.3642 73.523C73.6354 73.5077 73.9073 73.5092 74.1782 73.5273Z" fill="#371A45"/>
</g>
<path d="M52.9646 98.8239C55.2346 97.1899 58.8557 95.5469 61.5819 96.9611C62.8405 97.7179 63.9284 98.7457 64.8774 99.8482C65.8025 100.922 66.6042 102.095 67.2674 103.348C65.6136 101.589 63.8274 99.9879 61.7294 98.8213C60.9408 98.3913 60.116 98.0581 59.2061 98.0409C57.3193 98.0499 55.4544 99.0148 53.9313 100.085C53.0777 100.715 52.1304 99.4896 52.9646 98.8239Z" fill="#371A45"/>
<path d="M64.6702 119.777C64.4901 119.777 64.3158 119.714 64.1773 119.599C64.0388 119.484 63.9448 119.324 63.9118 119.147C63.8787 118.97 63.9085 118.787 63.9962 118.63C64.0838 118.473 64.2236 118.351 64.3915 118.286C64.5941 118.208 64.8817 118.039 65.0365 117.48C65.8269 114.62 62.1985 107.045 59.4599 103.528C56.615 99.8748 54.3256 100.231 54.2297 100.248C54.131 100.269 54.0291 100.27 53.9298 100.252C53.8306 100.233 53.736 100.195 53.6515 100.14C53.5671 100.084 53.4943 100.013 53.4376 99.9296C53.3808 99.8461 53.3411 99.7522 53.3207 99.6534C53.2795 99.4521 53.3197 99.2426 53.4325 99.0709C53.5454 98.8992 53.7216 98.7791 53.9227 98.737C54.0552 98.7087 57.1907 98.1002 60.6793 102.58C63.2753 105.913 67.571 114.11 66.5252 117.891C66.2775 118.788 65.7331 119.421 64.9505 119.725C64.8612 119.76 64.7661 119.777 64.6702 119.777Z" fill="#371A45"/>
<path d="M59.7613 96.7117C59.7455 96.7269 59.7311 96.7434 59.7183 96.7612C59.7144 96.7664 59.702 96.787 59.7058 96.7801C59.7321 96.7371 59.7957 96.6275 59.8224 96.5836C60.9752 94.6323 62.3542 92.825 63.8971 91.1656C66.0256 88.8311 69.0412 87.1532 72.206 86.8449C72.9861 86.7939 73.7696 86.8351 74.54 86.9679C73.7686 87.0273 73.017 87.1399 72.2941 87.345C70.1441 87.9634 68.2685 89.237 66.6723 90.7713C66.1404 91.2791 65.5947 91.7719 65.0654 92.2909C63.753 93.6076 62.6299 95.1147 61.6254 96.6795C61.5351 96.8253 61.2719 97.2484 61.1872 97.395L61.1145 97.518L61.0758 97.5838C60.4897 98.6227 59.0221 97.6543 59.7583 96.713L59.7613 96.7117Z" fill="#371A45"/>
<path d="M73.7198 110.515C73.5633 110.515 73.412 110.459 73.2928 110.358C73.1735 110.256 73.094 110.116 73.0683 109.962C71.7637 102.102 66.8527 95.7081 62.1201 95.7081C61.9477 95.7037 61.7838 95.6321 61.6634 95.5086C61.543 95.3851 61.4756 95.2195 61.4756 95.047C61.4756 94.8745 61.543 94.7089 61.6634 94.5853C61.7838 94.4618 61.9477 94.3903 62.1201 94.3859C67.5613 94.3859 72.9432 101.133 74.3725 109.745C74.4012 109.918 74.3601 110.095 74.2581 110.238C74.1561 110.381 74.0016 110.477 73.8286 110.506C73.7926 110.512 73.7562 110.515 73.7198 110.515Z" fill="#371A45"/>
<path d="M72.3853 66.3867L76.7993 66.4353L72.6541 67.9528C71.4359 68.3101 71.1172 66.4564 72.3853 66.3867Z" fill="#371A45"/>
<path d="M79.6771 82.2022C75.6166 82.2022 71.2611 80.4078 70.9825 80.2913C70.791 80.2079 70.6401 80.0525 70.5623 79.8588C70.4846 79.665 70.4861 79.4485 70.5668 79.2559C70.6474 79.0633 70.8005 78.9102 70.9932 78.8296C71.1858 78.749 71.4023 78.7475 71.5961 78.8254C74.2191 79.9223 81.5811 82.1003 84.1014 79.052C84.2366 78.8926 84.4291 78.7929 84.6372 78.7745C84.8454 78.7561 85.0524 78.8204 85.2135 78.9535C85.3746 79.0866 85.4768 79.2778 85.4979 79.4856C85.5191 79.6935 85.4575 79.9014 85.3265 80.0642C83.9956 81.6741 81.8791 82.2022 79.6771 82.2022Z" fill="#371A45"/>
<path d="M70.066 67.1104L69.8755 63.5337L71.5955 66.6757C71.6986 66.8654 71.7225 67.0883 71.6618 67.2955C71.6011 67.5027 71.4609 67.6775 71.2717 67.7817C70.7626 68.0767 70.0853 67.6931 70.0677 67.1104H70.066Z" fill="#371A45"/>
<path d="M42.7824 70.2593C42.9131 69.0955 43.1173 67.941 43.3938 66.803C43.6686 65.6828 44.0186 64.5704 44.5118 63.5324C44.1549 65.2051 44.1369 66.8946 44.2237 68.584C44.256 69.1396 44.3015 69.7111 44.3699 70.24C44.4624 71.4186 42.7179 71.444 42.7789 70.2593H42.7824Z" fill="#371A45"/>
<g opacity="0.25">
<path d="M84.7145 79.5585C88.1502 91.2468 86.6757 100.32 77.2944 105.184L68.6668 116.458C66.5168 119.267 62.5668 120.014 59.5766 118.124C56.9235 116.447 54.6819 113.315 53.3024 110.014C53.5604 110.221 53.8204 110.447 54.0825 110.693C63.0433 119.067 62.1196 106.947 62.1196 106.947C70.7231 114.38 66.2648 102.149 66.1943 101.95L69.3789 104.45C69.3789 104.45 70.1323 102.466 76.7986 96.6262C83.4649 90.7859 79.5536 83.8448 79.5536 83.8448C74.8154 84.7813 69.3789 81.3104 69.3789 81.414C69.3789 81.5176 65.0638 80.8696 64.8987 80.9797C64.7336 81.0898 64.8613 77.4034 64.8613 77.4034L71.6816 79.7129L74.1786 73.5273C75.9811 73.5011 79.9522 73.4843 79.9522 73.4843C84.481 64.008 76.0848 58.8183 76.0848 58.8183C65.8417 63.3251 53.2741 60.0416 52.8066 59.9092L60.3037 53.9459C64.9009 53.7309 68.6363 54.0053 68.6363 54.0053L75.1018 53.6638C75.1018 53.6638 80.6002 55.2308 83.5376 60.4445C86.4749 65.6583 87.359 74.8668 84.7145 79.5585Z" fill="#371A45"/>
</g>
<g opacity="0.25">
<path d="M92.4277 52.8823L92.3613 52.8559C92.3834 52.8442 92.4277 52.8823 92.4277 52.8823Z" fill="#371A45"/>
</g>
<path d="M57.9942 59.8684C74.2756 59.8684 87.4743 46.6697 87.4743 30.3883C87.4743 14.1069 74.2756 0.908264 57.9942 0.908264C41.7128 0.908264 28.5142 14.1069 28.5142 30.3883C28.5142 46.6697 41.7128 59.8684 57.9942 59.8684Z" fill="#F8F8F8"/>
<g opacity="0.25">
<path d="M85.5531 40.8562C79.7704 56.0783 62.7453 63.7298 47.5254 57.9475C42.8392 56.1757 38.685 53.2329 35.4587 49.4C37.5241 50.8749 39.7712 52.0771 42.1444 52.9767C57.3665 58.7585 74.3894 51.1075 80.1716 35.8876C84.1087 25.5224 81.8159 14.3204 75.1462 6.40195C85.7831 13.9971 90.4125 28.065 85.5531 40.8562Z" fill="#371A45"/>
</g>
<path d="M30.6226 41.6896C32.2721 45.4861 35.0366 49.5655 39.5907 53.4286C52.637 62.1185 70.2103 58.7607 77.642 40.6954L76.4681 25.7245C75.8429 23.4167 74.5649 21.228 72.8131 19.2448C62.0635 7.0921 33.4933 2.66309 28.8097 26.2001C28.8097 26.2001 26.9487 33.2362 30.6226 41.6896Z" fill="#371A45"/>
<g opacity="0.7">
<path d="M30.6223 41.6896C32.2718 45.4861 35.0363 49.5655 39.5904 53.4286C52.6367 62.1185 70.21 58.7607 77.6417 40.6954L76.4678 25.7245C75.8426 23.4167 74.5646 21.228 72.8128 19.2448C76.7546 39.7069 51.6219 60.5168 30.8055 41.7803L30.6223 41.6896Z" fill="#111A28"/>
</g>
<path d="M56.7852 60.5301C56.2162 60.5301 55.6358 60.5109 55.0441 60.4725C54.9453 60.468 54.8483 60.4439 54.759 60.4015C54.6696 60.359 54.5896 60.2992 54.5236 60.2255C54.4576 60.1518 54.407 60.0657 54.3747 59.9722C54.3424 59.8787 54.3291 59.7797 54.3355 59.681C54.3419 59.5822 54.368 59.4858 54.4121 59.3973C54.4563 59.3088 54.5177 59.2299 54.5927 59.1654C54.6677 59.1009 54.7548 59.052 54.8489 59.0215C54.943 58.9911 55.0423 58.9797 55.1409 58.9881C62.6057 59.4762 68.9994 56.7624 74.1469 50.9239C77.6661 46.9339 79.3736 42.7629 79.6725 41.9893L79.0455 23.5336C76.1572 16.9821 70.3118 11.712 62.5717 8.6831C54.6481 5.58107 46.0562 5.43014 39.5886 8.27847C39.4088 8.35334 39.2069 8.35476 39.0261 8.28242C38.8453 8.21008 38.7001 8.06974 38.6217 7.89154C38.5432 7.71333 38.5377 7.51147 38.6064 7.32928C38.6751 7.14709 38.8125 6.9991 38.9891 6.91708C45.8111 3.91223 54.83 4.05456 63.1122 7.29763C71.2745 10.493 77.4373 16.095 80.4662 23.0709C80.5036 23.1566 80.5243 23.2485 80.5273 23.3419L81.1641 42.0899C81.1674 42.1834 81.1528 42.2767 81.1211 42.3647C81.0506 42.5625 79.3495 47.2611 75.2972 51.8716C71.7587 55.8973 65.7387 60.5292 56.7852 60.5301Z" fill="#371A45"/>
<path d="M54.2209 58.7323C49.0686 58.7323 43.8381 57.1292 39.1872 54.0311C39.0305 53.9226 38.9227 53.7569 38.887 53.5697C38.8512 53.3825 38.8904 53.1887 38.9961 53.0301C39.1018 52.8715 39.2655 52.7608 39.452 52.7216C39.6385 52.6825 39.833 52.7182 39.9934 52.821C46.4331 57.1107 54.0304 58.3784 60.8373 56.2998C67.8696 54.1498 73.5701 48.5713 76.9039 40.5768L75.7481 25.8492C74.5871 21.6438 70.932 17.5072 65.714 14.4972C60.5049 11.4897 54.2639 9.87551 48.5922 10.0656C42.6401 10.2664 32.2478 12.6456 29.5216 26.3433C29.484 26.5324 29.3727 26.6989 29.2124 26.806C29.052 26.9131 28.8557 26.9522 28.6665 26.9145C28.4774 26.8769 28.311 26.7657 28.2038 26.6053C28.0967 26.445 28.0576 26.2486 28.0953 26.0595C30.2298 15.3378 37.6843 8.97852 48.5431 8.61216C61.2458 8.18603 74.618 16.0942 77.1692 25.5353C77.1809 25.5788 77.1885 25.6233 77.192 25.6682L78.3672 40.6374C78.376 40.7512 78.358 40.8655 78.3147 40.9711C74.8214 49.4614 68.7653 55.3993 61.2617 57.6912C58.9793 58.3852 56.6065 58.7361 54.2209 58.7323Z" fill="#371A45"/>
<path d="M58.0065 60.7774C54.3155 60.7737 50.6562 60.0973 47.2079 58.7813C31.5532 52.8335 23.6537 35.2572 29.601 19.6026C32.482 12.0182 38.1443 6.01023 45.5442 2.68459C52.9441 -0.641039 61.1962 -0.88442 68.7802 1.99659C84.4361 7.94437 92.3344 25.5198 86.387 41.1758C83.506 48.7597 77.8437 54.7677 70.4438 58.0933C66.5349 59.8586 62.2956 60.7734 58.0065 60.7774ZM57.9824 1.78546C53.9452 1.78956 49.9549 2.65109 46.2756 4.31301C39.3096 7.44299 33.9814 13.0979 31.2686 20.2364C25.6708 34.9721 33.1051 51.5147 47.8408 57.1125C54.9788 59.8241 62.746 59.5936 69.7107 56.4636C76.6754 53.3336 82.0049 47.6787 84.7177 40.5406L85.5519 40.8576L84.7177 40.5406C90.3155 25.8049 82.8812 9.2619 68.1455 3.66414C64.9 2.42573 61.4561 1.7891 57.9824 1.78546Z" fill="#371A45"/>
<path d="M88.4329 32.6252C88.5026 37.9116 85.877 42.1712 81.7645 42.2245C77.6519 42.2778 74.2626 38.0367 74.193 32.7503C74.1233 27.4639 77.4008 23.1342 81.5129 23.0804C85.625 23.0267 88.3637 27.3387 88.4329 32.6252Z" fill="#F8F8F8"/>
<g opacity="0.25">
<path d="M81.7642 42.2232C77.6529 42.2766 74.2628 38.0359 74.1961 32.7499C74.1742 31.0729 74.4873 29.4926 75.0596 28.1158C75.7411 32.5796 78.8303 35.9336 82.4879 35.8867C85.2085 35.8498 87.2785 33.9762 88.3484 31.1808C88.4004 31.6538 88.4296 32.1345 88.4344 32.6239C88.5019 37.9116 85.8784 42.1699 81.7642 42.2232Z" fill="#371A45"/>
</g>
<path d="M81.6857 43.1176C79.4497 43.1176 77.35 42.0297 75.7654 40.0474C74.2118 38.1034 73.3368 35.5161 73.3002 32.7619C73.2245 26.9917 76.9032 22.2484 81.5012 22.1877C83.7437 22.1645 85.784 23.2774 87.2202 25.3396C88.5403 27.2338 89.2877 29.8173 89.3247 32.6136C89.4038 38.6409 86.2286 43.0583 81.7755 43.1168L81.6857 43.1176ZM81.5898 23.9722H81.5249C77.9128 24.02 75.0224 27.9519 75.0856 32.7378C75.1165 35.0972 75.8531 37.2958 77.1599 38.9324C78.4142 40.5019 80.0452 41.3542 81.7528 41.3314C85.1721 41.2884 87.6059 37.63 87.5401 32.6368C87.5083 30.1935 86.8749 27.9644 85.7565 26.3588C84.995 25.2674 83.6559 23.9722 81.5898 23.9722Z" fill="#371A45"/>
<path d="M84.2514 41.601C80.6527 41.601 77.6822 37.5822 77.6156 32.6011C77.585 30.2206 78.2107 27.9652 79.3786 26.25C80.6006 24.4526 82.2695 23.4502 84.0781 23.427C84.4458 23.4228 84.8127 23.4612 85.1716 23.5414C85.2029 23.5483 85.2338 23.5572 85.264 23.568C85.4437 23.6327 85.5917 23.764 85.6773 23.9348C85.7628 24.1056 85.7794 24.3028 85.7236 24.4854C85.6678 24.6681 85.5438 24.8223 85.3774 24.9161C85.211 25.0099 85.0149 25.036 84.8297 24.9892C84.5887 24.9372 84.3427 24.9123 84.0961 24.9148C82.7885 24.9311 81.5497 25.7026 80.6088 27.0863C79.6125 28.5518 79.078 30.5035 79.1038 32.5813C79.1597 36.7489 81.4641 40.1132 84.2501 40.1132H84.2969C84.6693 40.1097 85.0382 40.0418 85.3874 39.9124C85.4793 39.8763 85.5775 39.8589 85.6762 39.8611C85.775 39.8634 85.8722 39.8852 85.9624 39.9255C86.0526 39.9657 86.1339 40.0235 86.2015 40.0954C86.2691 40.1674 86.3217 40.2521 86.3563 40.3446C86.3908 40.4371 86.4066 40.5356 86.4027 40.6343C86.3988 40.7329 86.3752 40.8299 86.3335 40.9193C86.2917 41.0088 86.2326 41.0891 86.1595 41.1555C86.0864 41.2219 86.0008 41.2731 85.9077 41.306C85.3983 41.495 84.86 41.5947 84.3167 41.6006L84.2514 41.601Z" fill="#371A45"/>
<g opacity="0.5">
<path d="M50.5287 14.6726C41.7876 20.1212 36.7076 27.6724 35.8054 37.6222C35.7332 38.4199 34.604 38.5291 34.3821 37.7598C30.7409 25.1397 32.5301 14.2301 50.1034 13.3271C50.8568 13.2871 51.1685 14.2731 50.5287 14.6726Z" fill="#CEB7FF"/>
</g>
<g opacity="0.5">
<path d="M67.5351 33.1072L67.379 33.1201C66.6902 33.1762 66.0051 32.9738 65.4573 32.5526C64.9095 32.1313 64.5381 31.5212 64.4154 30.8411C64.3867 30.68 64.3566 30.5239 64.3251 30.3728C64.0189 28.8726 64.9701 27.4058 66.4712 27.0971L66.589 27.073C67.2667 26.9343 67.9717 27.0529 68.5666 27.4057C69.1616 27.7585 69.6039 28.3202 69.8072 28.9813C69.8697 29.182 69.9286 29.3827 69.9839 29.5833C70.0946 29.9782 70.1167 30.3926 70.0486 30.7969C69.9804 31.2013 69.8238 31.5855 69.5898 31.9223C69.3558 32.259 69.0502 32.5398 68.695 32.7447C68.3398 32.9495 67.9437 33.0733 67.5351 33.1072Z" fill="#CEB7FF"/>
</g>
<g opacity="0.5">
<path d="M61.8394 49.9826C61.5194 49.7915 61.2412 49.5378 61.0213 49.2368C60.8015 48.9358 60.6445 48.5937 60.5598 48.2307C60.475 47.8677 60.4642 47.4914 60.528 47.1242C60.5919 46.757 60.729 46.4064 60.9312 46.0933C62.2603 44.0482 63.2021 41.7764 63.7099 39.3908C64.0332 37.8759 65.5034 36.8968 67.0179 37.2219L67.4079 37.3053C68.9361 37.633 69.9049 39.1591 69.5282 40.6761C68.5895 44.4537 66.8256 47.4151 65.5215 49.2245C65.1142 49.7892 64.5099 50.1804 63.8281 50.3208C63.1462 50.4612 62.4365 50.3405 61.8394 49.9826Z" fill="#CEB7FF"/>
</g>
<g opacity="0.25">
<path d="M47.177 94.0698C47.177 94.0698 56.9466 96.8102 64.5491 91.154L61.0286 96.406L59.7743 97.2351C57.1247 97.383 54.9751 97.9854 53.6313 99.321C50.9412 98.3355 48.7155 96.6903 47.177 94.0698Z" fill="#371A45"/>
</g>
<g opacity="0.25">
<path d="M44.0574 65.2133C44.0574 65.2133 40.758 68.1588 39.0264 74.0459L41.2804 78.923L42.0703 78.3894C42.0703 78.3894 42.4376 72.3027 42.346 72.1926C42.2544 72.0825 43.3272 70.9529 43.5758 69.3275C43.8243 67.7021 43.8063 66.7011 43.8063 66.7011" fill="#371A45"/>
</g>
<path d="M26.7627 98.9791L28.0957 102.026L25.501 99.9458C25.4169 99.8788 25.3468 99.7959 25.2947 99.7018C25.2427 99.6078 25.2097 99.5043 25.1977 99.3974C25.1857 99.2906 25.195 99.1824 25.2249 99.0791C25.2548 98.9758 25.3048 98.8794 25.372 98.7955C25.7367 98.3161 26.533 98.4274 26.7601 98.9791H26.7627Z" fill="#371A45"/>
<path d="M80.453 57.2763C80.304 57.2761 80.158 57.2341 80.0317 57.1549C79.9054 57.0758 79.804 56.9627 79.7389 56.8286C79.6738 56.6945 79.6478 56.5448 79.6637 56.3967C79.6797 56.2485 79.737 56.1078 79.8291 55.9906C83.5985 51.2004 89.4009 52.0311 89.6464 52.0686C89.8516 52.1038 90.0348 52.2182 90.1566 52.3871C90.2784 52.556 90.329 52.7659 90.2975 52.9717C90.2661 53.1776 90.1551 53.3628 89.9885 53.4877C89.8218 53.6125 89.6129 53.667 89.4065 53.6394C89.1954 53.608 84.2624 52.9264 81.0778 56.9732C81.0035 57.0678 80.9086 57.1442 80.8003 57.1968C80.6921 57.2493 80.5733 57.2765 80.453 57.2763Z" fill="#371A45"/>
<g opacity="0.25">
<path d="M80.7675 49.8416C80.7675 49.8416 76.2482 51.9224 82.5838 58.8209C80.3074 56.4903 77.9454 54.6752 75.4312 53.7744L78.9296 49.6227" fill="#371A45"/>
</g>
<path d="M23.8937 63.7177C23.9928 63.9336 24.0781 64.1555 24.1491 64.3821C23.2246 65.1363 21.3971 66.195 19.2097 67.1952C17.0223 68.1953 15.0275 68.8864 13.8519 69.0928C13.727 68.8908 13.615 68.6811 13.5165 68.465L13.5023 68.4344C13.459 68.3378 13.4184 68.2406 13.3806 68.1429C13.293 67.917 13.2201 67.6858 13.1622 67.4506C13.1622 67.4411 13.1574 67.4317 13.1553 67.4222C12.8478 66.1404 12.9934 64.7918 13.5675 63.6052C14.1416 62.4187 15.1087 61.4674 16.3046 60.9131C17.5005 60.3587 18.8514 60.2354 20.1279 60.5641C21.4044 60.8928 22.5278 61.6533 23.3072 62.7163C23.3244 62.7395 23.3412 62.7627 23.3575 62.7864C23.4975 62.984 23.6248 63.1904 23.7385 63.4043C23.7815 63.4847 23.8245 63.5664 23.8619 63.6494C23.8726 63.6722 23.8834 63.6945 23.8937 63.7177Z" fill="#CEB7FF"/>
<path d="M24.3906 66.5841C24.3154 67.4491 24.0438 68.2854 23.5965 69.0296C23.1493 69.7738 22.5381 70.4061 21.8096 70.8784C21.0811 71.3507 20.2545 71.6506 19.3926 71.7553C18.5307 71.8599 17.6563 71.7665 16.8359 71.4823C16.3095 71.2996 15.8125 71.0412 15.3606 70.7151C16.7585 70.3574 18.3736 69.7825 20.0442 69.0183C21.7147 68.2542 23.2055 67.408 24.3906 66.5841Z" fill="#CEB7FF"/>
<path d="M24.1492 64.3816C23.2247 65.1363 21.3972 66.1954 19.2102 67.1951C17.0232 68.1949 15.0271 68.8863 13.8515 69.0927C13.7269 68.8906 13.6149 68.6809 13.5161 68.4649L13.5024 68.4344C13.4594 68.3377 13.4164 68.2405 13.3807 68.1429C13.2932 67.917 13.2203 67.6857 13.1622 67.4506C13.1596 67.4411 13.1575 67.4316 13.1553 67.4222C12.8858 66.2957 12.9651 65.1138 13.3829 64.0335C13.8007 62.9531 14.5372 62.0254 15.4946 61.3734C14.8491 62.3779 14.5334 63.5589 14.5916 64.7514C14.6093 65.1027 14.6597 65.4515 14.7421 65.7933C14.7421 65.8028 14.7468 65.8123 14.7489 65.8217C14.7511 65.8312 14.7562 65.8497 14.7618 65.8677C15.0525 66.8481 16.1082 67.2584 17.1268 67.1659C19.0679 66.99 23.2716 64.7179 24.166 64.1933C24.2287 64.3442 24.101 64.229 24.1492 64.3816Z" fill="#CEB7FF"/>
<path d="M20.0442 69.0183C21.7147 68.2542 23.2055 67.408 24.3906 66.5841C24.3704 66.8164 24.3358 67.0471 24.287 67.2751C23.3754 67.9433 21.9177 68.7702 20.2192 69.5472C18.5925 70.2916 17.0754 70.8372 15.9819 71.1056C15.7666 70.989 15.559 70.8586 15.3606 70.7151C16.7585 70.3574 18.3736 69.7825 20.0442 69.0183Z" fill="#CEB7FF"/>
<path d="M23.8618 63.6494C23.8725 63.6721 23.8833 63.6924 23.8936 63.7177C23.9927 63.9335 24.078 64.1554 24.149 64.3821C23.2245 65.1363 21.397 66.195 19.2096 67.1951C17.0222 68.1953 15.0274 68.8863 13.8518 69.0927C13.7269 68.8907 13.6149 68.6811 13.5164 68.4649L13.5022 68.4344C14.6176 68.3054 16.6502 67.6368 18.8772 66.6177C21.1945 65.5581 23.0869 64.4113 23.8618 63.6494Z" fill="#CEB7FF"/>
<path d="M12.9954 66.5725L13.0134 66.1881C13.7913 66.2251 15.8226 65.5702 17.9533 64.5971C20.495 63.4361 22.135 62.3228 22.4416 61.8257L22.7689 62.0278C22.3634 62.6853 20.4924 63.8583 18.1132 64.9471C15.8979 65.9593 13.8412 66.6125 12.9954 66.5725Z" fill="#CEB7FF"/>
<path d="M13.2722 64.6302L13.2141 64.2501C14.0879 64.1163 15.6023 63.5891 17.1658 62.8741C18.8041 62.1246 20.2188 61.2998 20.8638 60.7215L21.1218 61.007C20.4528 61.609 18.9985 62.4595 17.3271 63.2241C15.7322 63.9525 14.1812 64.4917 13.2722 64.6302Z" fill="#CEB7FF"/>
<path d="M13.1553 67.6144V67.23C14.048 67.23 16.1468 66.5445 18.3781 65.5237C20.719 64.453 22.6815 63.252 23.1511 62.6036L23.4628 62.8289C22.9503 63.5371 20.9714 64.7605 18.5385 65.8737C16.2255 66.9315 14.1125 67.6148 13.1553 67.6144Z" fill="#CEB7FF"/>
<path d="M16.8425 71.5781L16.8352 71.4827L16.7922 71.3967L16.8099 71.3872H16.8301C17.6015 71.3283 19.0708 70.8463 20.5711 70.1591C22.0821 69.4681 23.3708 68.6971 23.9354 68.1424L24.07 68.28C23.4908 68.8472 22.1806 69.6341 20.6515 70.3337C19.1061 71.0398 17.6471 71.5166 16.8425 71.5781Z" fill="#CEB7FF"/>
<path d="M24.3906 66.5841C24.3031 67.5897 23.9505 68.5541 23.3687 69.379C22.7869 70.2039 21.9967 70.8598 21.0788 71.2797C20.1609 71.6996 19.148 71.8686 18.1435 71.7694C17.1389 71.6702 16.1787 71.3065 15.3606 70.7151C16.7585 70.3574 18.3736 69.7825 20.0442 69.0183C21.7147 68.2542 23.2055 67.408 24.3906 66.5841Z" fill="#CEB7FF"/>
<path d="M27.1733 63.1063C27.5212 63.8661 26.3911 65.1931 24.3899 66.5841C23.2048 67.408 21.714 68.2542 20.0434 69.0184C18.3729 69.7825 16.7578 70.3574 15.3599 70.7151C12.9987 71.3202 11.2559 71.3068 10.9081 70.547C10.5924 69.8564 11.495 68.698 13.1617 67.451C13.2196 67.6862 13.2926 67.9175 13.3801 68.1433C12.9196 68.5234 12.6921 68.8244 12.773 68.9986C12.8538 69.1727 13.243 69.1998 13.8514 69.0932C15.027 68.8868 17.024 68.1953 19.2092 67.1956C21.3945 66.1958 23.2242 65.1367 24.1487 64.3825C24.6273 63.9916 24.8633 63.6825 24.7821 63.5049C24.7008 63.3273 24.3267 63.3049 23.738 63.4047C23.6243 63.1908 23.4971 62.9844 23.357 62.7868C25.3918 62.3417 26.8577 62.4157 27.1733 63.1063Z" fill="#CEB7FF"/>
<path d="M13.3456 68.0504C13.3573 68.0814 13.3689 68.1123 13.3809 68.1433C12.9204 68.523 12.6929 68.8236 12.7737 68.9981C12.8546 69.1727 13.2442 69.1994 13.8522 69.0927C14.6318 68.956 15.7734 68.6055 17.0918 68.093C17.0705 68.1999 17.0705 68.3099 17.0918 68.4168C16.5827 68.6081 16.0895 68.7767 15.6216 68.9207C13.5873 69.546 12.5256 69.5374 12.4018 69.2647C12.3291 69.1052 12.5403 68.7032 13.3456 68.0504Z" fill="#CEB7FF"/>
<path d="M13.1918 67.7735L13.2404 67.8341C12.8947 68.0963 12.5688 68.3837 12.2656 68.6941C12.4467 68.4305 12.755 68.1244 13.1918 67.7735Z" fill="#CEB7FF"/>
<path d="M13.2912 67.895L13.2422 67.8338C13.2491 67.8278 13.2574 67.8221 13.2656 67.8161L13.2912 67.895Z" fill="#CEB7FF"/>
<path d="M12.2678 68.6959C12.0799 68.9719 12.0317 69.2028 12.119 69.3942C12.2063 69.5855 12.4045 69.684 12.6819 69.7279C13.4051 69.8427 14.65 69.5451 15.713 69.2183C16.1941 69.0708 16.702 68.8962 17.2248 68.6997C17.3255 68.8287 17.4751 68.9259 17.6686 69.0007C16.8946 69.2961 16.1447 69.546 15.4416 69.7425C12.9356 70.4434 11.8468 70.255 11.6752 69.8814C11.5802 69.6724 11.7174 69.2742 12.2678 68.6959Z" fill="#CEB7FF"/>
<path d="M19.9431 69.0652C18.3091 69.8065 16.7314 70.3647 15.3619 70.7151C13.0012 71.3201 11.2579 71.3068 10.9105 70.5466C10.5949 69.8586 11.4975 68.6976 13.1641 67.4506C13.1813 67.5196 13.1998 67.5886 13.2196 67.6574L13.1246 67.5331C12.1571 68.2736 11.0713 69.3043 11.3947 70.0091C11.5194 70.2817 11.8148 70.4292 12.2057 70.4911C13.1259 70.636 14.5707 70.3088 15.5274 70.0413C16.4354 69.7832 17.3291 69.4776 18.205 69.1258C18.666 69.1843 19.2551 69.1628 19.9431 69.0652Z" fill="#CEB7FF"/>
<path d="M17.2251 68.6997C16.7017 68.8962 16.1931 69.0708 15.7132 69.2183C14.6502 69.5451 13.4054 69.8427 12.6821 69.7278C12.4047 69.6848 12.2044 69.5799 12.1192 69.3942C12.0341 69.2084 12.0801 68.9719 12.268 68.6958C12.5712 68.3855 12.897 68.098 13.2428 67.8358L13.2914 67.8965C13.309 67.9485 13.3271 68.0001 13.3456 68.0521C12.5402 68.7049 12.3291 69.1069 12.4022 69.266C12.5269 69.5391 13.5877 69.5477 15.622 68.922C16.0899 68.778 16.5831 68.6094 17.0922 68.4181C17.1021 68.4674 17.1177 68.5155 17.1386 68.5613C17.1617 68.6107 17.1907 68.6572 17.2251 68.6997Z" fill="#CEB7FF"/>
<path d="M13.2429 67.8341C12.8971 68.0963 12.5713 68.3837 12.2681 68.6941C12.4474 68.4288 12.7557 68.1226 13.1943 67.7718L13.2429 67.8341Z" fill="#CEB7FF"/>
<path d="M13.291 67.8943L13.3882 68.0156C13.3736 68.0268 13.3594 68.0384 13.3452 68.05C13.3267 67.9984 13.3086 67.9468 13.291 67.8943Z" fill="#CEB7FF"/>
<path d="M23.0281 65.8733C22.0081 66.5119 20.7779 67.1663 19.4703 67.7653C18.71 68.1132 17.9523 68.4292 17.2252 68.7014C17.191 68.6585 17.1621 68.6116 17.1392 68.5617C17.1183 68.5159 17.1027 68.4678 17.0928 68.4185C17.8199 68.1472 18.5793 67.8311 19.3413 67.4828C20.6368 66.8898 21.8546 66.2423 22.8625 65.6101C24.666 64.4797 25.3527 63.6713 25.2275 63.3991C25.1527 63.2361 24.6965 63.1329 23.6365 63.3294L23.5935 63.0994L23.5794 63.0233C24.1341 62.9201 24.5684 62.887 24.887 62.9248C25.2159 62.9644 25.4215 63.0792 25.5088 63.2688C25.8188 63.9405 24.3297 65.0563 23.0281 65.8733Z" fill="#CEB7FF"/>
<path d="M18.2035 69.1259C17.3276 69.4776 16.4338 69.7832 15.5259 70.0413C14.5687 70.3088 13.1244 70.636 12.2042 70.4911C11.8133 70.4292 11.5161 70.2817 11.3932 70.0091C11.0698 69.3043 12.1556 68.2736 13.1231 67.5331L13.2181 67.6574C13.2336 67.7107 13.2491 67.7641 13.2663 67.8165C13.2581 67.8225 13.2499 67.8281 13.243 67.8341L13.1944 67.7735C12.7558 68.1244 12.4475 68.4306 12.2682 68.6959C11.7178 69.2742 11.5802 69.6724 11.6757 69.8801C11.8477 70.2538 12.936 70.4421 15.4421 69.7412C16.1451 69.5447 16.8955 69.2949 17.669 68.9994C17.8416 69.0624 18.021 69.1048 18.2035 69.1259Z" fill="#CEB7FF"/>
<path d="M13.1918 67.7735L13.2404 67.8341C12.8947 68.0963 12.5688 68.3837 12.2656 68.6941C12.4467 68.4305 12.755 68.1244 13.1918 67.7735Z" fill="#CEB7FF"/>
<path d="M13.2178 67.6574L13.3119 67.7804L13.2659 67.8165C13.2487 67.7653 13.2354 67.7107 13.2178 67.6574Z" fill="#CEB7FF"/>
<path d="M23.7702 66.2685C22.6363 67.021 21.2573 67.7735 19.7819 68.4503C19.2522 68.6928 18.7233 68.9186 18.2012 69.1258C18.0187 69.1048 17.8393 69.0624 17.6667 68.9994C18.3173 68.7517 18.9847 68.4722 19.6529 68.1669C21.1149 67.4992 22.4772 66.7527 23.5986 66.0092C25.7675 64.5708 26.3369 63.624 26.1662 63.2499C26.0711 63.0426 25.6815 62.8861 24.8869 62.9231C24.452 62.9492 24.0197 63.0076 23.5935 63.0977L23.5075 63.1153L23.4442 62.8104C24.6366 62.5623 26.1266 62.4152 26.4491 63.12C26.8701 64.0363 24.9527 65.4863 23.7702 66.2685Z" fill="#CEB7FF"/>
<path d="M27.1733 63.1063C27.5212 63.8661 26.3911 65.1931 24.3899 66.5841C23.2048 67.408 21.714 68.2542 20.0434 69.0184C18.3729 69.7825 16.7578 70.3574 15.3599 70.7151C12.9987 71.3202 11.2559 71.3068 10.9081 70.547C10.5924 69.8564 11.495 68.698 13.1617 67.451C13.2196 67.6862 13.2926 67.9175 13.3801 68.1433C12.9196 68.5234 12.6921 68.8244 12.773 68.9986C12.8538 69.1727 13.243 69.1998 13.8514 69.0932C15.027 68.8868 17.024 68.1953 19.2092 67.1956C21.3945 66.1958 23.2242 65.1367 24.1487 64.3825C24.6273 63.9916 24.8633 63.6825 24.7821 63.5049C24.7008 63.3273 24.3267 63.3049 23.738 63.4047C23.6243 63.1908 23.4971 62.9844 23.357 62.7868C25.3918 62.3417 26.8577 62.4157 27.1733 63.1063Z" fill="#CEB7FF"/>
<g opacity="0.41">
<path d="M24.1511 64.4014C24.0436 64.4874 23.9236 64.5812 23.7925 64.6766C23.7383 64.5264 23.6777 64.3776 23.6106 64.2303C23.5998 64.2075 23.5891 64.1873 23.5788 64.1623C23.5398 64.0789 23.4986 63.9972 23.4554 63.9172C23.3417 63.7032 23.2144 63.4967 23.0744 63.2989C23.058 63.2757 23.0408 63.2525 23.0241 63.2292C22.4771 62.4841 21.7574 61.8828 20.9268 61.4773C20.0962 61.0717 19.1795 60.8739 18.2556 60.9009C17.3316 60.9279 16.428 61.1788 15.6225 61.6322C14.817 62.0856 14.1336 62.7278 13.6311 63.5036C14.0349 62.718 14.6154 62.0369 15.327 61.5137C16.0387 60.9905 16.862 60.6396 17.7322 60.4885C18.6024 60.3374 19.4958 60.3903 20.3421 60.643C21.1885 60.8957 21.9646 61.3413 22.6095 61.9448C22.8677 62.1858 23.1025 62.4505 23.3109 62.7356C23.3285 62.7588 23.3448 62.7825 23.3616 62.8061C23.5016 63.0036 23.6288 63.2099 23.7426 63.4236C23.7856 63.504 23.8286 63.5861 23.8656 63.6687C23.8768 63.6915 23.8875 63.7143 23.8974 63.7375C23.9956 63.9533 24.0804 64.1751 24.1511 64.4014Z" fill="#CEB7FF"/>
</g>
<path d="M23.8937 63.7177C23.9928 63.9335 24.0781 64.1554 24.1492 64.3821C23.2247 65.1363 21.3971 66.1949 19.2097 67.1951C17.0223 68.1953 15.0275 68.8863 13.8519 69.0927C13.727 68.8907 13.615 68.681 13.5165 68.4649C13.4675 68.3583 13.4222 68.2509 13.3806 68.1429C12.8552 66.7866 12.8676 65.281 13.4153 63.9336C13.9629 62.5862 15.0045 61.4988 16.3271 60.8938C17.6497 60.2887 19.1535 60.2116 20.531 60.6782C21.9086 61.1448 23.0559 62.1199 23.7385 63.4042C23.7933 63.5066 23.845 63.6111 23.8937 63.7177Z" fill="#CEB7FF"/>
<path d="M23.431 63.9439C23.5207 64.1395 23.5979 64.3406 23.6623 64.5459C22.8256 65.2283 21.1713 66.1859 19.1938 67.0907C17.2162 67.9954 15.4097 68.621 14.3463 68.8077C14.2336 68.6247 14.1323 68.435 14.0428 68.2396L14.0303 68.2117C13.9907 68.1257 13.954 68.0378 13.9202 67.9481C13.8412 67.7438 13.7751 67.5347 13.7224 67.322C13.7224 67.3134 13.7181 67.3048 13.7164 67.2962C13.438 66.1366 13.5696 64.9163 14.0889 63.8428C14.6083 62.7692 15.4833 61.9086 16.5652 61.4071C17.6472 60.9055 18.8695 60.7941 20.0243 61.0916C21.1792 61.3891 22.1954 62.0773 22.9004 63.0392C22.9159 63.0603 22.9309 63.0822 22.9459 63.1028C23.0725 63.2816 23.1874 63.4683 23.2899 63.6618C23.3286 63.7345 23.3661 63.8085 23.4013 63.8833C23.4121 63.9026 23.4215 63.9233 23.431 63.9439Z" fill="#FFB200"/>
<path d="M23.8804 66.5372C23.8359 67.0421 23.7177 67.5377 23.5295 68.0083C23.037 69.2409 22.0884 70.2363 20.8809 70.7876C19.6734 71.3389 18.2999 71.4036 17.0459 70.9684C16.7791 70.876 16.5203 70.7621 16.2719 70.6278C16.077 70.5222 15.8892 70.4042 15.7095 70.2744C16.9741 69.9506 18.4352 69.4307 19.9467 68.7393C21.4582 68.0478 22.8084 67.2824 23.8804 66.5372Z" fill="#FF9100"/>
<path d="M23.6619 64.5446C22.8255 65.2274 21.1709 66.1855 19.1933 67.0898C17.2157 67.9941 15.4093 68.6202 14.3459 68.8068C14.2332 68.6238 14.1318 68.4341 14.0423 68.2387C14.038 68.2293 14.0341 68.2203 14.0298 68.2112C13.9903 68.1252 13.9537 68.0358 13.9198 67.9472C13.8406 67.7429 13.7746 67.5338 13.722 67.3211C13.722 67.3125 13.7177 67.3039 13.7159 67.2953C13.4722 66.2762 13.5441 65.2071 13.922 64.2298C14.2999 63.2525 14.966 62.4131 15.832 61.8231C15.2477 62.7317 14.962 63.8002 15.015 64.8791C15.0308 65.1969 15.0763 65.5124 15.1509 65.8217L15.1573 65.8475C15.1599 65.8587 15.1638 65.8724 15.1685 65.8905C15.4316 66.7776 16.3867 67.1487 17.3082 67.0653C19.0643 66.9062 22.8672 64.8503 23.6761 64.376C23.7337 64.5106 23.618 64.4066 23.6619 64.5446Z" fill="#FF9100"/>
<path d="M19.9484 68.7393C21.4594 68.0478 22.8084 67.2824 23.8804 66.5372C23.8621 66.7474 23.8308 66.9562 23.7866 67.1625C22.9619 67.767 21.6431 68.5148 20.1067 69.2179C18.6348 69.8908 17.2626 70.3862 16.2736 70.6278C16.0787 70.5222 15.8909 70.4042 15.7112 70.2744C16.9762 69.9506 18.4383 69.4307 19.9484 68.7393Z" fill="#D66B09"/>
<path d="M23.4024 63.882C23.4123 63.9026 23.4218 63.925 23.4312 63.9439C23.5209 64.1395 23.5981 64.3406 23.6626 64.5459C22.8258 65.2283 21.1716 66.1859 19.194 67.0907C17.2164 67.9954 15.41 68.621 14.3466 68.8077C14.2339 68.6247 14.1325 68.435 14.043 68.2396L14.0305 68.2117C15.0393 68.096 16.8784 67.4901 18.8943 66.5682C20.9897 65.6089 22.7015 64.5709 23.4024 63.882Z" fill="#D66B09"/>
<path d="M13.5718 66.5265L13.5881 66.179C14.292 66.2126 16.1294 65.62 18.0571 64.7381C20.3568 63.6859 21.8411 62.6806 22.1176 62.2308L22.4139 62.4135C22.0471 63.0086 20.3542 64.0699 18.1999 65.0546C16.1978 65.9714 14.3372 66.5613 13.5718 66.5265Z" fill="#D66B09"/>
<path d="M13.8227 64.7695L13.7698 64.4255C14.5605 64.3047 15.9305 63.8278 17.3452 63.1806C18.8274 62.5025 20.1089 61.756 20.6898 61.2327L20.9229 61.4907C20.3174 62.0364 19.002 62.8048 17.4897 63.4963C16.0479 64.1563 14.6427 64.6439 13.8227 64.7695Z" fill="#D66B09"/>
<path d="M13.7166 67.4695V67.1203C14.5241 67.1203 16.4226 66.5007 18.4414 65.577C20.5592 64.6083 22.3346 63.5221 22.7595 62.9351L23.0416 63.1394C22.5776 63.7796 20.7875 64.8865 18.5863 65.8914C16.4939 66.8516 14.5826 67.4699 13.7166 67.4695Z" fill="#D66B09"/>
<path d="M17.0527 71.0552L17.0462 70.9692L17.0054 70.8923L17.0213 70.8837H17.0393C17.7372 70.8308 19.0664 70.3943 20.4256 69.7725C21.7921 69.1473 22.9583 68.4486 23.4692 67.9485L23.5908 68.0728C23.0667 68.5857 21.8816 69.2978 20.4983 69.9308C19.1008 70.5681 17.7807 70.9998 17.0527 71.0552Z" fill="#D66B09"/>
<path d="M18.7391 71.4672C17.6067 71.4678 16.5028 71.1117 15.5842 70.4494L15.2109 70.1798L15.6568 70.0654C16.9546 69.7334 18.4089 69.2054 19.858 68.5432C21.3071 67.881 22.6564 67.1242 23.7568 66.3601L24.1348 66.0974L24.0948 66.5562C23.9786 67.8965 23.3641 69.1445 22.3725 70.0538C21.381 70.963 20.0844 71.4674 18.7391 71.4672ZM16.2322 70.3574C16.918 70.7597 17.6907 70.9909 18.4848 71.0312C19.279 71.0715 20.0711 70.9198 20.7942 70.589C21.5172 70.2582 22.1499 69.758 22.6386 69.1308C23.1273 68.5035 23.4576 67.7677 23.6016 66.9857C22.5614 67.6707 21.3393 68.3398 20.0377 68.9354C18.7361 69.5309 17.4306 70.0185 16.2326 70.3574H16.2322Z" fill="#371A45"/>
<path d="M26.3985 63.3905C26.7133 64.0785 25.6911 65.2786 23.8804 66.5372C22.8084 67.2824 21.4595 68.0478 19.9485 68.7393C18.4375 69.4307 16.9759 69.9506 15.7112 70.2744C13.575 70.8218 11.9986 70.8097 11.6838 70.1222C11.3983 69.4978 12.2149 68.4507 13.7225 67.3211C13.7751 67.5338 13.8412 67.7429 13.9203 67.9472C13.5036 68.2912 13.2989 68.5634 13.3707 68.7212C13.4426 68.879 13.796 68.9031 14.3464 68.8072C15.4098 68.6206 17.2167 67.9949 19.1938 67.0902C21.171 66.1855 22.8256 65.2279 23.6624 64.5455C24.095 64.192 24.3074 63.9121 24.2356 63.7513C24.1638 63.5904 23.8232 63.5707 23.2896 63.661C23.187 63.4674 23.0721 63.2807 22.9456 63.102C24.7869 62.699 26.113 62.7661 26.3985 63.3905Z" fill="#FFD766"/>
<path d="M13.8883 67.8638C13.8986 67.8918 13.9094 67.9197 13.9201 67.9498C13.5035 68.2938 13.2983 68.5656 13.3706 68.7238C13.4428 68.882 13.7963 68.9057 14.3463 68.8098C15.0515 68.686 16.0843 68.3686 17.2772 67.9068C17.258 68.0036 17.258 68.1032 17.2772 68.2001C16.8166 68.3721 16.3703 68.5256 15.9472 68.6559C14.1067 69.2213 13.147 69.2149 13.0343 68.9667C12.9685 68.818 13.1595 68.4533 13.8883 67.8638Z" fill="#FFAA39"/>
<path d="M13.7513 67.6131L13.7943 67.6681C13.4816 67.9059 13.187 68.1664 12.9128 68.4477C13.0757 68.2078 13.3552 67.9296 13.7513 67.6131Z" fill="#FF9100"/>
<path d="M13.84 67.7229L13.7966 67.6678C13.8031 67.6622 13.8105 67.657 13.8179 67.6518L13.84 67.7229Z" fill="#FF9100"/>
<path d="M12.9136 68.4478C12.7416 68.6972 12.6986 68.9066 12.7786 69.0794C12.8586 69.2523 13.0366 69.3417 13.2882 69.3804C13.9426 69.4841 15.0688 69.2149 16.0303 68.9195C16.4654 68.7857 16.9243 68.6279 17.3981 68.4503C17.5049 68.5753 17.6435 68.6689 17.7993 68.7212C17.0997 68.9887 16.4207 69.2149 15.7848 69.3925C13.5174 70.0267 12.5327 69.8564 12.3774 69.518C12.2914 69.331 12.4157 68.9693 12.9136 68.4478Z" fill="#FFAA39"/>
<path d="M19.8567 68.7814C18.3788 69.4522 16.9516 69.9575 15.7123 70.2744C13.5765 70.8218 11.9997 70.8097 11.6849 70.1217C11.3998 69.4978 12.2164 68.4508 13.724 67.3207C13.7395 67.3835 13.7567 67.4458 13.7743 67.5082L13.6883 67.3955C12.8132 68.0655 11.8307 68.9981 12.1231 69.6358C12.2362 69.8827 12.5032 70.0155 12.8571 70.0719C13.6892 70.203 14.9959 69.9067 15.8624 69.6646C16.6837 69.431 17.4922 69.1546 18.2846 68.8365C18.7013 68.8902 19.2349 68.87 19.8567 68.7814Z" fill="#FFAA39"/>
<path d="M17.398 68.4533C16.925 68.6309 16.4653 68.7887 16.0302 68.9224C15.0687 69.2179 13.9425 69.487 13.2881 69.3834C13.0369 69.3438 12.8559 69.2497 12.7785 69.0824C12.7011 68.9151 12.7433 68.7001 12.9135 68.4507C13.1877 68.1694 13.4823 67.9089 13.795 67.6711L13.838 67.7257C13.8535 67.773 13.8703 67.8199 13.8871 67.8668C13.1561 68.4572 12.9673 68.821 13.0335 68.965C13.1462 69.2118 14.1059 69.2196 15.9463 68.6541C16.3695 68.5251 16.8158 68.3712 17.2763 68.1983C17.2855 68.2429 17.2999 68.2862 17.3193 68.3273C17.3401 68.3725 17.3666 68.4148 17.398 68.4533Z" fill="#FFCF6E"/>
<path d="M13.7943 67.6681C13.4816 67.9059 13.187 68.1664 12.9128 68.4477C13.0748 68.2078 13.354 67.9296 13.7505 67.6131L13.7943 67.6681Z" fill="#FFEC90"/>
<path d="M13.8394 67.7223L13.9254 67.832C13.9125 67.8423 13.8991 67.8526 13.8867 67.8634C13.8716 67.8169 13.8548 67.7701 13.8394 67.7223Z" fill="#FFEC90"/>
<path d="M22.6471 65.8931C21.6116 66.5313 20.5366 67.1029 19.4285 67.6045C18.7405 67.9188 18.0551 68.2065 17.3976 68.4512C17.3661 68.4117 17.3398 68.3684 17.3194 68.3222C17.3 68.281 17.2855 68.2377 17.2764 68.1932C17.9343 67.9476 18.6214 67.6617 19.3107 67.3461C20.4825 66.8099 21.5846 66.2242 22.4962 65.6523C24.1276 64.6297 24.7489 63.8983 24.6363 63.6519C24.5688 63.5049 24.156 63.4111 23.1983 63.5891L23.1597 63.381L23.1467 63.3118C23.649 63.2185 24.042 63.1888 24.3301 63.2232C24.6277 63.2589 24.8134 63.3625 24.8926 63.5345C25.1716 64.1456 23.8253 65.1543 22.6471 65.8931Z" fill="#FFEC90"/>
<path d="M18.283 68.8364C17.4906 69.1546 16.6821 69.431 15.8608 69.6646C14.9944 69.9067 13.6876 70.203 12.8555 70.0718C12.5017 70.0155 12.2346 69.8826 12.1215 69.6358C11.8291 68.9981 12.8095 68.0655 13.6867 67.3955L13.7727 67.5082C13.7865 67.5563 13.8007 67.6045 13.8157 67.6522C13.8084 67.6574 13.8011 67.6625 13.7947 67.6681L13.7517 67.6131C13.3546 67.9304 13.0754 68.2086 12.914 68.4477C12.4161 68.9706 12.2918 69.3309 12.3778 69.5189C12.533 69.8573 13.5178 70.0275 15.7852 69.3933C16.4211 69.2157 17.1001 68.9895 17.7997 68.7221C17.9557 68.7792 18.118 68.8176 18.283 68.8364Z" fill="#FFCF6E"/>
<path d="M13.7513 67.6131L13.7943 67.6681C13.4816 67.9059 13.187 68.1664 12.9128 68.4477C13.0757 68.2078 13.3552 67.9296 13.7513 67.6131Z" fill="#FFAA39"/>
<path d="M13.7727 67.5073L13.8587 67.6187L13.8157 67.6514C13.8007 67.6045 13.7865 67.5563 13.7727 67.5073Z" fill="#FFEC90"/>
<path d="M23.3214 66.2517C22.2954 66.9324 21.0475 67.6148 19.7128 68.2254C19.2338 68.4447 18.7552 68.649 18.2831 68.8365C18.1178 68.8177 17.9555 68.7793 17.7993 68.7221C18.388 68.4981 18.9917 68.2452 19.5963 67.9692C20.9173 67.3646 22.1514 66.6899 23.1653 66.0169C25.1278 64.7158 25.6425 63.8592 25.4873 63.5229C25.4013 63.3355 25.0487 63.1936 24.3302 63.2275C23.9366 63.2507 23.5454 63.3034 23.1597 63.3853L23.0819 63.4012L23.0247 63.1256C24.1036 62.9012 25.4516 62.7679 25.7432 63.4055C26.1237 64.232 24.3891 65.5435 23.3214 66.2517Z" fill="#FFEC90"/>
<path d="M13.1491 70.882C12.3751 70.882 11.7189 70.7143 11.4892 70.2121C11.0489 69.2488 12.6193 67.8793 13.5963 67.1483L13.8568 66.9531L13.9347 67.2696C13.9851 67.474 14.0484 67.6751 14.1243 67.8716L14.1802 68.0169L14.0602 68.1158C13.7033 68.4103 13.6087 68.5677 13.5838 68.6271C13.6466 68.6477 13.8345 68.68 14.3122 68.5965C15.3902 68.4073 17.2276 67.7555 19.1067 66.8959C20.9858 66.0363 22.6805 65.0722 23.5289 64.3799C23.9043 64.0734 24.0019 63.9104 24.0281 63.8493C23.9666 63.8291 23.7851 63.7977 23.3298 63.8751L23.1763 63.9014L23.1032 63.7642C23.0046 63.5786 22.8943 63.3995 22.7729 63.228L22.585 62.9622L22.9028 62.893C24.0935 62.6328 26.157 62.3404 26.5974 63.3032C27.0845 64.3675 25.1831 65.8987 24.0062 66.7166C22.8856 67.4957 21.5122 68.2646 20.0411 68.9375C18.5701 69.6105 17.0896 70.1471 15.7673 70.4855C15.0312 70.6713 14.0146 70.882 13.1491 70.882ZM13.6023 67.6858C12.0913 68.8692 11.7154 69.6694 11.8823 70.0327C12.0715 70.4455 13.1723 70.7023 15.6598 70.0654C16.9576 69.7335 18.4118 69.2054 19.8609 68.5432C21.3101 67.881 22.6594 67.1242 23.7598 66.3601C25.8668 64.8955 26.394 63.8936 26.2048 63.4791C26.0388 63.1162 25.1878 62.8771 23.3044 63.2465C23.3405 63.3049 23.3754 63.3634 23.4093 63.4232C24.004 63.3402 24.3218 63.415 24.434 63.6601C24.557 63.9289 24.3618 64.2527 23.8011 64.7106C22.9127 65.4356 21.2249 66.3975 19.286 67.2846C17.3472 68.1717 15.5149 68.8197 14.384 69.0179C13.6711 69.1426 13.2978 69.0786 13.1749 68.8098C13.0631 68.5647 13.2144 68.2749 13.6659 67.8793C13.6427 67.8161 13.6221 67.7512 13.6006 67.6858H13.6023Z" fill="#371A45"/>
<g opacity="0.41">
<path d="M23.6636 64.5623C23.5664 64.6417 23.4583 64.7247 23.3394 64.8112C23.2903 64.6759 23.2354 64.5415 23.1747 64.4079C23.1652 64.3872 23.1553 64.3649 23.1459 64.3464C23.1106 64.2707 23.0732 64.1968 23.0345 64.1245C22.9317 63.9311 22.8168 63.7444 22.6905 63.5655L22.6449 63.5023C22.1501 62.8282 21.4989 62.2843 20.7475 61.9175C19.996 61.5506 19.1667 61.3717 18.3308 61.3961C17.495 61.4206 16.6775 61.6476 15.9488 62.0578C15.22 62.468 14.6018 63.049 14.1472 63.7508C14.5487 62.9675 15.1439 62.2999 15.8762 61.8115C16.6085 61.3232 17.4535 61.0302 18.331 60.9606C19.2084 60.8909 20.0891 61.0469 20.8893 61.4137C21.6894 61.7804 22.3825 62.3458 22.9025 63.056C22.9184 63.077 22.9334 63.099 22.9485 63.1196C23.075 63.2984 23.1899 63.4851 23.2925 63.6786C23.3315 63.7514 23.3686 63.8252 23.4039 63.9001C23.4138 63.9207 23.4236 63.9431 23.4327 63.962C23.5221 64.1571 23.5992 64.3576 23.6636 64.5623Z" fill="#CEB7FF"/>
</g>
<path d="M14.2393 69.0441L14.1624 68.9199C14.0451 68.7294 13.9395 68.532 13.8463 68.3286C13.8005 68.228 13.7575 68.1267 13.7173 68.0246C13.246 66.8019 13.2373 65.4491 13.693 64.2204C14.1486 62.9917 15.0372 61.9716 16.1918 61.3518C17.3464 60.732 18.6876 60.5551 19.9634 60.8543C21.2393 61.1535 22.3619 61.9083 23.1206 62.9768C23.2523 63.1632 23.3723 63.3576 23.4796 63.559C23.5308 63.6554 23.5798 63.7538 23.6259 63.8545C23.7188 64.0579 23.7992 64.2669 23.8667 64.4801L23.9097 64.6194L23.7961 64.7119C22.9077 65.4369 21.22 66.3988 19.2811 67.2859C17.3422 68.173 15.51 68.821 14.3791 69.0192L14.2393 69.0441ZM18.7346 61.1433C17.9311 61.1419 17.1395 61.3365 16.4283 61.7103C15.717 62.0841 15.1077 62.6257 14.6532 63.2882C14.1987 63.9508 13.9127 64.7142 13.8199 65.5123C13.7272 66.3103 13.8306 67.119 14.1211 67.8681C14.1572 67.9621 14.1965 68.0554 14.2389 68.148C14.3038 68.2903 14.3761 68.4301 14.4539 68.5655C15.5474 68.3467 17.3065 67.7146 19.1035 66.8924C20.9005 66.0702 22.5289 65.1526 23.41 64.4685C23.3584 64.321 23.2999 64.1748 23.2346 64.0325C23.1924 63.9399 23.1477 63.8494 23.1004 63.7611C23.0015 63.5757 22.891 63.3966 22.7697 63.2249C22.3124 62.5807 21.7074 62.0555 21.0053 61.6933C20.3033 61.3311 19.5246 61.1425 18.7346 61.1433Z" fill="#371A45"/>
</svg>
