<svg width="380" height="367" viewBox="0 0 380 367" fill="none" xmlns="http://www.w3.org/2000/svg">
<path d="M366.679 188.356C365.839 216.76 358.444 244.585 345.073 269.658C344.548 270.681 343.972 271.704 343.395 272.727C331.956 293.434 316.583 311.707 298.138 326.517C292.594 330.969 286.789 335.086 280.754 338.844C267.943 346.889 254.186 353.32 239.797 357.989C238.748 358.33 237.778 358.671 236.756 358.959C210.581 366.892 182.965 368.874 155.926 364.759C128.887 360.645 103.11 350.538 80.4779 335.179C57.846 319.819 38.9319 299.595 25.1185 275.984C11.3051 252.374 2.9415 225.974 0.639295 198.715C0.639295 197.587 0.481996 196.46 0.377114 195.332C-1.30071 169.239 2.63335 143.089 11.9142 118.645C12.7794 116.337 13.7234 114.056 14.6673 111.748C19.6378 100.05 25.7878 88.8899 33.0217 78.4401C36.45 73.5118 40.1347 68.767 44.0606 64.2253C44.6899 63.4385 45.3192 62.6779 46.0009 61.9436C57.3365 49.059 70.4471 37.8529 84.9385 28.662C85.9611 27.9801 86.9575 27.3507 87.9801 26.7737C90.7857 25.0428 93.6437 23.4167 96.528 21.8431C97.4457 21.371 98.3372 20.8727 99.15 20.4269C135.91 1.44842 178.006 -4.53716 218.598 3.44297C259.189 11.4231 295.889 32.8998 322.733 64.3826C323.756 65.5628 324.752 66.7692 325.696 67.9757C330.692 74.0939 335.282 80.5332 339.435 87.2522C340.222 88.5111 340.982 89.8749 341.717 91.0813C349.388 104.273 355.386 118.369 359.573 133.044C359.861 134.04 360.123 135.037 360.386 136.007C363.806 148.68 365.846 161.685 366.469 174.796C366.731 179.229 366.784 183.766 366.679 188.356Z" fill="url(#paint0_radial_33_6)" fill-opacity="0.6"/>
<g style="mix-blend-mode:multiply" opacity="0.5">
<path d="M362.562 222.135C362.562 222.135 278.289 228.64 261.009 198.007C243.73 167.374 226.162 159.585 198.683 162.837C171.204 166.089 136.619 188.198 103.214 179.255C69.809 170.312 6.4338 135.378 6.4338 135.378C0.979919 152.242 0.00976562 183.792 0.00976562 183.792C0.00976562 183.792 14.8506 236.665 56.6724 239.97C98.4943 243.274 192.731 257.804 254.664 275.979C316.597 294.154 333.483 288.751 333.483 288.751C347.773 268.85 357.684 246.146 362.562 222.135ZM61.2086 223.735C56.856 212.93 84.8071 211.645 90.0512 219.46C95.2953 227.276 70.412 246.657 61.2086 223.735ZM179.201 174.351C205.264 163.86 251.072 182.769 246.719 199.869C242.367 216.969 158.959 182.533 179.123 174.403L179.201 174.351ZM231.642 261.921C230.908 246.71 249.42 256.676 253.746 264.544C258.073 272.412 232.167 274.221 231.59 261.921H231.642ZM312.612 261.58C312.583 260.761 312.723 259.945 313.022 259.182C313.321 258.42 313.772 257.726 314.349 257.144C314.926 256.562 315.616 256.105 316.376 255.8C317.137 255.495 317.951 255.348 318.77 255.37C319.589 255.391 320.395 255.58 321.138 255.925C321.881 256.269 322.546 256.763 323.092 257.374C323.637 257.985 324.052 258.701 324.31 259.479C324.569 260.256 324.665 261.079 324.594 261.895C324.332 270.76 312.323 265.776 312.559 261.58H312.612Z" fill="url(#paint1_radial_33_6)" fill-opacity="0.6"/>
</g>
<g style="mix-blend-mode:soft-light" opacity="0.51">
<path d="M366.653 188.356C366.653 188.356 306.345 150.485 258.467 140.807C210.588 131.129 157.858 161.132 96.7381 150.616C65.0899 145.187 35.6179 127.458 14.6152 111.643C19.553 99.9294 25.7048 88.7658 32.9696 78.3352C44.1134 89.5077 74.9226 118.593 103.765 129.084C139.766 142.197 172.961 127.93 233.583 131.418C285.5 134.408 349.216 165.775 366.417 174.692C366.731 179.229 366.784 183.766 366.653 188.356Z" fill="url(#paint2_radial_33_6)" fill-opacity="0.6"/>
</g>
<g style="mix-blend-mode:soft-light">
<path d="M261.718 90.8453C262.482 87.9857 262.58 84.9892 262.007 82.0856C261.935 81.618 261.766 81.171 261.508 80.7742C261.218 80.413 260.836 80.1352 260.403 79.9694C259.97 79.8035 259.501 79.7555 259.044 79.8301C257.924 79.9547 256.867 80.4105 256.007 81.1393C255.148 81.8682 254.525 82.8368 254.219 83.9214C253.948 85.018 253.942 86.1633 254.202 87.2625C254.462 88.3617 254.98 89.3831 255.714 90.242C256.482 91.2205 257.601 91.8604 258.834 92.0254C259.453 92.0991 260.079 91.9494 260.598 91.6033C261.117 91.2572 261.495 90.7374 261.666 90.1371C261.599 90.0693 261.516 90.019 261.425 89.9908C261.334 89.9625 261.238 89.9573 261.144 89.9755C261.051 89.9937 260.963 90.0347 260.89 90.0949C260.816 90.1552 260.758 90.2328 260.722 90.3207L261.718 90.8453Z" fill="url(#paint3_radial_33_6)"/>
<path d="M304.772 107.656C304.921 106.823 304.857 105.966 304.587 105.163C304.316 104.361 303.848 103.64 303.225 103.067C302.417 103.305 301.678 103.734 301.071 104.319C300.464 104.903 300.007 105.625 299.738 106.424C299.622 106.825 299.586 107.245 299.633 107.66C299.679 108.075 299.807 108.477 300.009 108.843C300.212 109.208 300.484 109.53 300.811 109.79C301.138 110.05 301.513 110.243 301.914 110.358C303.566 110.646 305.244 108.574 304.3 107.184L304.772 107.656Z" fill="url(#paint4_radial_33_6)"/>
<path d="M299.764 92.4975C299.605 91.9418 299.366 91.4118 299.056 90.924L298.925 90.7928C298.858 90.7665 298.783 90.7665 298.715 90.7928C298.191 91.0813 298.112 92.0255 297.535 92.0517C297.535 92.0517 297.299 92.0517 297.221 92.0517C297.142 92.0517 297.221 92.3926 297.221 92.5238C297.384 92.6837 297.581 92.8049 297.797 92.8783C298.013 92.9517 298.243 92.9754 298.47 92.9477C298.697 92.9199 298.914 92.8415 299.107 92.7182C299.299 92.5949 299.461 92.4298 299.581 92.2353V92.4975H299.764Z" fill="url(#paint5_radial_33_6)"/>
<path d="M287.834 78.204C287.524 77.1687 287.074 76.1805 286.497 75.2666C286.427 75.1539 286.327 75.0631 286.208 75.0044C286.147 74.9743 286.08 74.9586 286.012 74.9586C285.943 74.9586 285.876 74.9743 285.815 75.0044C284.845 75.5289 284.714 77.2861 283.586 77.3385C283.403 77.3385 283.167 77.3385 283.009 77.3385C282.852 77.3385 283.009 77.968 283.009 78.204C283.323 78.4997 283.698 78.7225 284.108 78.8568C284.518 78.9911 284.952 79.0334 285.38 78.9808C285.808 78.9283 286.22 78.782 286.585 78.5526C286.95 78.3232 287.26 78.0161 287.493 77.6532V78.1515L287.834 78.204Z" fill="url(#paint6_radial_33_6)"/>
<path d="M316.886 71.0967C316.603 70.056 316.161 69.0652 315.575 68.1593C315.575 68.1593 315.418 67.9233 315.287 67.897C315.225 67.8703 315.158 67.8566 315.09 67.8566C315.022 67.8566 314.956 67.8703 314.893 67.897C313.923 68.4478 313.792 70.205 312.665 70.2312C312.481 70.2312 312.245 70.2312 312.088 70.2312C311.93 70.2312 312.088 70.8606 312.219 71.1229C312.535 71.4142 312.911 71.6333 313.32 71.765C313.729 71.8966 314.162 71.9377 314.588 71.8853C315.015 71.8329 315.425 71.6883 315.79 71.4616C316.155 71.2348 316.466 70.9313 316.703 70.5721V71.0442L316.886 71.0967Z" fill="url(#paint7_radial_33_6)"/>
<path d="M303.042 82.8461C303.095 82.4595 303.062 82.0658 302.944 81.6938C302.826 81.3217 302.627 80.9807 302.36 80.6956C302.073 80.8959 301.831 81.1552 301.652 81.4561C301.556 81.6046 301.505 81.7776 301.505 81.9544C301.505 82.1312 301.556 82.3043 301.652 82.4527C301.967 82.8199 302.517 82.715 302.989 82.6101L302.78 82.951L303.042 82.8461Z" fill="url(#paint8_radial_33_6)"/>
<path d="M297.85 80.6169C297.797 80.3736 297.669 80.1533 297.483 79.9875C297.302 79.8774 297.09 79.8312 296.88 79.8563C296.3 79.8561 295.72 79.8034 295.149 79.699L296.985 81.9545C297.007 82.0137 297.007 82.0788 296.985 82.138C296.985 82.4003 296.775 82.6101 296.696 82.8724C296.618 83.1347 296.932 83.5805 297.3 83.7903C299.869 85.2328 298.191 81.7446 297.85 80.6169Z" fill="url(#paint9_radial_33_6)"/>
<path d="M270.214 70.2574C270.178 70.0423 270.066 69.847 269.899 69.7067C269.703 69.6407 269.492 69.6407 269.296 69.7067C268.716 69.7064 268.136 69.6537 267.565 69.5493L269.401 71.8048C269.414 71.8652 269.414 71.9279 269.401 71.9884C269.401 72.2507 269.191 72.4605 269.112 72.7227C269.034 72.985 269.348 73.4308 269.689 73.6144C272.259 74.7422 270.581 71.4114 270.214 70.2574Z" fill="url(#paint10_radial_33_6)"/>
<path d="M305.795 63.6221L305.349 62.9402C305.126 63.1106 304.961 63.3455 304.877 63.613C304.793 63.8806 304.793 64.1676 304.877 64.4351C304.934 64.5601 305.022 64.6687 305.132 64.7506C305.243 64.8325 305.372 64.885 305.508 64.9034C305.644 64.9217 305.783 64.9052 305.911 64.8554C306.039 64.8057 306.153 64.7242 306.241 64.6187C306.424 64.3302 306.555 63.7794 306.87 63.963L305.795 63.6221Z" fill="url(#paint11_radial_33_6)"/>
<path d="M263.396 62.9926C263.374 63.1846 263.306 63.3684 263.198 63.5286C263.09 63.6889 262.945 63.8208 262.776 63.9133C262.606 64.0059 262.417 64.0563 262.224 64.0604C262.031 64.0644 261.839 64.0221 261.666 63.9368C261.492 63.8364 261.348 63.6926 261.247 63.5195C261.146 63.3464 261.092 63.15 261.09 62.9497C261.088 62.7493 261.138 62.5519 261.236 62.3768C261.333 62.2017 261.475 62.055 261.646 61.9512C261.817 61.8473 262.013 61.7899 262.213 61.7845C262.413 61.7791 262.611 61.826 262.788 61.9205C262.965 62.015 263.114 62.1539 263.22 62.3235C263.327 62.493 263.388 62.6875 263.396 62.8877V62.9926Z" fill="url(#paint12_radial_33_6)"/>
<path d="M273.439 71.3589C273.937 71.7523 274.488 72.3817 274.173 72.9325C273.858 73.4832 273.098 73.3521 272.521 73.1685C271.944 72.9849 271.997 72.9587 271.944 72.6964C271.892 72.4342 273.098 71.9621 273.072 71.3326C273.229 71.3326 273.439 71.5162 273.308 71.6211L273.439 71.3589Z" fill="url(#paint13_radial_33_6)"/>
<path d="M313.845 116.023C313.793 115.559 313.63 115.114 313.37 114.726C313.11 114.338 312.76 114.018 312.35 113.794C312.147 113.692 311.922 113.64 311.695 113.64C311.468 113.64 311.243 113.693 311.04 113.795C310.837 113.897 310.66 114.044 310.523 114.226C310.386 114.408 310.294 114.619 310.253 114.843C310.239 114.979 310.253 115.116 310.294 115.247C310.334 115.377 310.4 115.499 310.489 115.603L310.829 115.944C311.322 116.353 311.947 116.567 312.586 116.547C312.902 116.521 313.194 116.371 313.4 116.13C313.606 115.89 313.709 115.578 313.687 115.262L313.845 116.023Z" fill="url(#paint14_radial_33_6)"/>
<path d="M333.353 126.566C333.078 126.597 332.82 126.717 332.619 126.907C332.479 127.139 332.364 127.385 332.278 127.641C332.015 128.244 331.307 128.48 330.888 128.979C330.622 129.475 330.482 130.029 330.482 130.592C330.482 131.155 330.622 131.709 330.888 132.205C330.888 132.441 331.098 132.729 331.36 132.782C331.553 132.801 331.747 132.755 331.911 132.65C333.169 132.178 333.956 133.359 335.136 133.227C336.019 132.994 336.773 132.42 337.233 131.631C337.693 130.841 337.82 129.901 337.587 129.018C337.354 128.135 336.78 127.38 335.991 126.92C335.202 126.46 334.262 126.333 333.379 126.566H333.353Z" fill="url(#paint15_radial_33_6)"/>
<path d="M303.566 92.3664C303.729 92.5354 303.846 92.743 303.907 92.9696C303.606 92.9359 303.317 92.8332 303.062 92.6694C302.808 92.5056 302.594 92.2852 302.439 92.0254C302.229 91.7632 302.019 91.396 302.177 91.1075C302.334 90.819 302.57 90.819 302.753 90.6879C302.937 90.5567 303.304 89.7175 303.776 89.7699C303.905 89.8001 304.02 89.874 304.102 89.9791C304.183 90.0842 304.225 90.2141 304.222 90.3469C304.217 90.6224 304.145 90.8926 304.012 91.1337L303.252 92.7073L303.566 92.3664Z" fill="url(#paint16_radial_33_6)"/>
<path d="M297.011 98.9231C297.011 98.4248 296.198 98.3723 295.91 98.7657C295.811 98.9933 295.76 99.2388 295.76 99.4869C295.76 99.7351 295.811 99.9806 295.91 100.208C296.251 100.169 296.574 100.031 296.839 99.8126C297.104 99.5939 297.301 99.3032 297.404 98.9755L297.011 98.9231Z" fill="url(#paint17_radial_33_6)"/>
<path d="M295.543 91.737C295.49 91.5019 295.392 91.2792 295.254 91.0814C295.184 90.9841 295.087 90.9082 294.976 90.862C294.865 90.8157 294.744 90.8009 294.625 90.8191C294.258 90.9502 294.206 91.4748 293.917 91.7632C293.629 92.0517 293.13 92.0517 292.947 92.4189C292.763 92.7861 293.13 93.2057 293.524 93.2844C293.916 93.3075 294.304 93.1966 294.625 92.9697C294.953 92.8315 295.228 92.5927 295.412 92.2878C295.523 92.1555 295.583 91.9884 295.583 91.8157C295.583 91.643 295.523 91.4759 295.412 91.3436L295.543 91.737Z" fill="url(#paint18_radial_33_6)"/>
<path d="M294.468 88.7209C294.437 88.827 294.371 88.9192 294.28 88.9815C294.189 89.0438 294.079 89.0722 293.969 89.0619C293.74 88.9945 293.544 88.8451 293.419 88.6423C293.337 88.5271 293.291 88.3901 293.288 88.2489C293.294 88.0935 293.361 87.9467 293.473 87.8392C293.586 87.7317 293.735 87.6717 293.891 87.6719C294.048 87.6915 294.193 87.77 294.295 87.8916C294.397 88.0132 294.449 88.1689 294.441 88.3275C294.419 88.4839 294.344 88.6282 294.23 88.7375C294.116 88.8468 293.969 88.9148 293.812 88.9307L294.468 88.7209Z" fill="url(#paint19_radial_33_6)"/>
<path d="M261.797 95.094C261.767 95.2001 261.7 95.2923 261.609 95.3545C261.518 95.4168 261.408 95.4453 261.299 95.4349C261.07 95.3675 260.874 95.2181 260.748 95.0153C260.663 94.9018 260.617 94.7638 260.617 94.6219C260.624 94.4665 260.69 94.3197 260.803 94.2122C260.915 94.1047 261.065 94.0448 261.22 94.0449C261.378 94.0646 261.522 94.1431 261.624 94.2647C261.726 94.3863 261.778 94.542 261.771 94.7006C261.748 94.8569 261.674 95.0012 261.56 95.1105C261.446 95.2198 261.298 95.2879 261.141 95.3038L261.797 95.094Z" fill="url(#paint20_radial_33_6)"/>
<path d="M297.483 87.567C297.599 87.5393 297.706 87.4817 297.792 87.3999C297.879 87.3182 297.943 87.2151 297.977 87.101C298.012 86.9869 298.016 86.8658 297.989 86.7496C297.962 86.6335 297.905 86.5265 297.824 86.4392C297.564 86.4703 297.323 86.5908 297.142 86.7802C297.066 86.8773 297.024 86.9974 297.024 87.1211C297.024 87.2448 297.066 87.3649 297.142 87.462C297.175 87.5164 297.221 87.5613 297.276 87.5925C297.331 87.6237 297.393 87.6401 297.457 87.6401C297.52 87.6401 297.582 87.6237 297.638 87.5925C297.693 87.5613 297.739 87.5164 297.771 87.462L297.483 87.567Z" fill="url(#paint21_radial_33_6)"/>
<path d="M264.209 51.7153C264.325 51.6876 264.432 51.63 264.518 51.5483C264.605 51.4665 264.669 51.3634 264.703 51.2493C264.738 51.1352 264.742 51.0141 264.715 50.898C264.688 50.7818 264.631 50.6748 264.55 50.5875C264.294 50.6311 264.057 50.7498 263.868 50.9285C263.794 51.0314 263.753 51.1554 263.753 51.2825C263.753 51.4097 263.794 51.5336 263.868 51.6366C263.901 51.6909 263.947 51.7358 264.002 51.767C264.057 51.7982 264.12 51.8146 264.183 51.8146C264.246 51.8146 264.309 51.7982 264.364 51.767C264.419 51.7358 264.465 51.6909 264.498 51.6366L264.209 51.7153Z" fill="url(#paint22_radial_33_6)"/>
<path d="M253.878 74.7421C254.014 74.4785 254.085 74.1862 254.085 73.8897C254.085 73.5932 254.014 73.301 253.878 73.0374L252.62 73.7455C252.406 73.8413 252.224 73.9959 252.095 74.1913C252.054 74.2925 252.034 74.4012 252.037 74.5104C252.041 74.6196 252.066 74.727 252.113 74.8257C252.16 74.9243 252.227 75.0122 252.31 75.0836C252.392 75.155 252.489 75.2084 252.593 75.2404C252.811 75.2875 253.037 75.2676 253.243 75.1833C253.449 75.0991 253.625 74.9544 253.747 74.7683L253.878 74.7421Z" fill="url(#paint23_radial_33_6)"/>
<path d="M267.303 79.6989L268.798 81.8495C268.562 82.2429 267.985 81.9806 267.644 81.6659C267.281 81.4042 267.007 81.0383 266.857 80.6168C266.826 80.51 266.817 80.3979 266.831 80.2874C266.844 80.1769 266.881 80.0705 266.937 79.9746C266.994 79.8787 267.069 79.7954 267.159 79.7299C267.249 79.6645 267.352 79.6182 267.461 79.594L267.303 79.6989Z" fill="url(#paint24_radial_33_6)"/>
<path d="M328.371 100.969C328.475 100.852 328.547 100.71 328.58 100.558C328.614 100.405 328.608 100.247 328.564 100.097C328.519 99.9475 328.437 99.8117 328.325 99.7026C328.214 99.5935 328.076 99.5148 327.925 99.4738C327.607 99.4183 327.28 99.4775 327.001 99.6407C326.723 99.804 326.511 100.061 326.404 100.365C326.301 100.627 326.301 100.917 326.404 101.179C326.521 101.362 326.694 101.502 326.898 101.578C327.101 101.653 327.324 101.661 327.532 101.598C327.93 101.466 328.297 101.252 328.607 100.969H328.371Z" fill="url(#paint25_radial_33_6)"/>
<path d="M270.817 68.6838C271.033 68.4747 271.182 68.2051 271.242 67.9103C271.303 67.6155 271.274 67.3092 271.158 67.0315C270.722 67.0615 270.313 67.2478 270.004 67.556C269.796 67.7501 269.661 68.0102 269.623 68.2922C269.585 68.5743 269.645 68.8609 269.794 69.1034C270.161 69.5492 271.079 69.3394 271.053 68.7624L270.817 68.6838Z" fill="url(#paint26_radial_33_6)"/>
<path d="M269.139 74.5848C269.131 74.7836 269.057 74.9743 268.929 75.1263C268.801 75.2784 268.625 75.3832 268.431 75.424L267.67 74.3225C267.766 74.2023 267.888 74.1052 268.026 74.0385C268.164 73.9718 268.316 73.9371 268.47 73.9371C268.624 73.9371 268.775 73.9718 268.914 74.0385C269.052 74.1052 269.174 74.2023 269.27 74.3225L269.139 74.5848Z" fill="url(#paint27_radial_33_6)"/>
<path d="M317.83 107.473L316.598 109.151C316.475 109.306 316.386 109.485 316.336 109.676C316.326 109.885 316.371 110.093 316.467 110.279C316.729 110.961 317.201 111.8 317.961 111.748C318.722 111.695 319.063 110.699 319.43 109.964C320.059 108.601 323.573 106.398 322.262 104.719C320.951 103.041 318.591 106.45 317.83 107.473Z" fill="url(#paint28_radial_33_6)"/>
<path d="M324.752 97.9264L325.146 98.2936C324.779 98.4856 324.378 98.6016 323.966 98.6345C323.759 98.6436 323.554 98.5878 323.38 98.475C323.206 98.3622 323.072 98.1979 322.996 98.0051C322.996 97.6117 323.31 97.1134 323.704 97.2708C324.097 97.3911 324.445 97.629 324.7 97.9527L324.752 97.9264Z" fill="url(#paint29_radial_33_6)"/>
<path d="M292.239 95.2251C292.212 95.3948 292.136 95.5529 292.019 95.679C291.902 95.8051 291.751 95.8936 291.583 95.9332C291.416 95.9717 291.242 95.9627 291.08 95.907C290.917 95.8514 290.774 95.7514 290.666 95.6185C290.535 95.4349 290.508 95.0939 290.666 94.989H290.954H292.265V95.1988L292.239 95.2251Z" fill="url(#paint30_radial_33_6)"/>
<path d="M285.71 97.1396C285.29 97.0085 284.897 97.3232 284.609 97.6641C284.32 98.0051 284.006 98.346 283.586 98.2936C283.528 98.2998 283.469 98.2881 283.417 98.26C283.366 98.2319 283.324 98.1887 283.298 98.1362C283.298 97.8477 283.507 97.6117 283.691 97.3756C283.805 97.1688 283.893 96.9485 283.953 96.72C284.077 96.4589 284.274 96.2401 284.521 96.0908C284.769 95.9415 285.054 95.8684 285.343 95.8807C285.468 95.9679 285.568 96.0866 285.632 96.2247C285.697 96.3629 285.723 96.5157 285.71 96.6675C285.686 96.8204 285.619 96.9633 285.517 97.0794C285.415 97.1955 285.282 97.2801 285.133 97.3232L285.71 97.1396Z" fill="url(#paint31_radial_33_6)"/>
<path d="M284.556 93.1007L284.373 92.6549C284.238 92.6383 284.102 92.672 283.991 92.7494C283.88 92.8268 283.801 92.9426 283.77 93.0745C283.754 93.14 283.752 93.208 283.764 93.2743C283.776 93.3406 283.801 93.4038 283.838 93.4602C283.874 93.5165 283.922 93.5649 283.978 93.6023C284.034 93.6397 284.097 93.6653 284.163 93.6777C284.425 93.6777 284.687 93.3892 284.609 93.1532L284.556 93.1007Z" fill="url(#paint32_radial_33_6)"/>
<path d="M273.098 92.1042L272.914 91.6583C272.78 91.6417 272.644 91.6754 272.533 91.7528C272.421 91.8302 272.342 91.946 272.311 92.0779C272.296 92.1435 272.294 92.2114 272.306 92.2777C272.317 92.344 272.342 92.4072 272.379 92.4636C272.416 92.5199 272.464 92.5683 272.519 92.6057C272.575 92.6431 272.638 92.6687 272.704 92.6811C272.77 92.6822 272.835 92.6686 272.895 92.6415C272.955 92.6143 273.009 92.5742 273.051 92.5241C273.094 92.474 273.125 92.415 273.142 92.3515C273.159 92.2879 273.162 92.2214 273.15 92.1566L273.098 92.1042Z" fill="url(#paint33_radial_33_6)"/>
<path d="M300.577 85.9671C300.577 86.2818 300.97 86.4654 301.285 86.3867C301.6 86.308 301.809 86.0458 302.098 85.9146C302.249 85.8424 302.415 85.8049 302.583 85.8049C302.751 85.8049 302.917 85.8424 303.068 85.9146C303.159 85.9444 303.24 85.9998 303.3 86.0742C303.361 86.1486 303.398 86.2389 303.409 86.3343C303.405 86.4675 303.359 86.596 303.278 86.7014C302.996 87.2661 302.559 87.7391 302.019 88.0652C301.757 88.2457 301.446 88.3423 301.128 88.3423C300.809 88.3423 300.498 88.2457 300.236 88.0652C300.066 87.9236 299.937 87.7385 299.863 87.5297C299.788 87.3208 299.772 87.0958 299.815 86.8784C299.858 86.6609 299.959 86.4591 300.107 86.2941C300.255 86.1291 300.444 86.0071 300.656 85.9409L300.577 85.9671Z" fill="url(#paint34_radial_33_6)"/>
<path d="M257.68 33.986C257.68 34.3008 258.074 34.4844 258.388 34.3794C258.67 34.2419 258.942 34.0841 259.201 33.9074C259.354 33.8417 259.519 33.8079 259.686 33.8079C259.853 33.8079 260.018 33.8417 260.171 33.9074C260.261 33.9465 260.34 34.008 260.399 34.086C260.459 34.1641 260.498 34.256 260.512 34.3532C260.504 34.4855 260.458 34.6127 260.381 34.7204C260.091 35.2796 259.656 35.7506 259.122 36.0842C258.857 36.2579 258.548 36.3505 258.231 36.3505C257.914 36.3505 257.604 36.2579 257.339 36.0842C257.175 35.9396 257.05 35.7552 256.976 35.5487C256.903 35.3421 256.883 35.1202 256.92 34.904C256.971 34.6896 257.075 34.4913 257.221 34.3266C257.367 34.1619 257.552 34.0359 257.759 33.9598L257.68 33.986Z" fill="url(#paint35_radial_33_6)"/>
<path d="M303.828 78.0729C303.866 77.9802 303.884 77.8808 303.881 77.7808C303.879 77.6809 303.856 77.5825 303.815 77.4916C303.773 77.4008 303.713 77.3194 303.639 77.2525C303.564 77.1856 303.477 77.1346 303.383 77.1025C303.195 77.0362 302.993 77.0231 302.799 77.0648C302.604 77.1064 302.425 77.2012 302.281 77.3386C302.15 77.3386 302.045 77.6533 302.124 77.7844C302.208 77.8716 302.319 77.9271 302.439 77.9418L303.881 78.2041L303.828 78.0729Z" fill="url(#paint36_radial_33_6)"/>
<path d="M257.366 50.2465C257.867 50.1197 258.339 49.8945 258.753 49.5838C259.167 49.2732 259.516 48.8833 259.778 48.4369C259.838 48.2762 259.838 48.0992 259.778 47.9386C259.778 47.5714 259.122 47.6501 258.729 47.6501C258.336 47.6501 257.497 47.0469 256.815 47.0206C256.266 47.0873 255.752 47.326 255.347 47.7025C254.717 48.1746 254.036 48.9876 254.455 49.6695C254.594 49.8247 254.763 49.9492 254.953 50.035C255.143 50.1208 255.348 50.166 255.556 50.1678C256.431 50.2744 257.318 50.23 258.178 50.0367L257.366 50.2465Z" fill="url(#paint37_radial_33_6)"/>
<path d="M286.365 61.6288C286.995 61.6288 287.257 60.8683 287.309 60.265C287.347 60.0716 287.341 59.872 287.291 59.6813C287.241 59.4906 287.149 59.3136 287.021 59.1635C286.601 58.8226 285.998 59.1635 285.579 59.3996L284.425 60.1601C284.268 60.1601 284.084 60.4224 284.058 60.6322C284.056 60.7215 284.074 60.8102 284.11 60.8919C284.146 60.9735 284.2 61.0461 284.268 61.1043C284.854 61.796 285.577 62.3586 286.392 62.7566L286.365 61.6288Z" fill="url(#paint38_radial_33_6)"/>
<path d="M279.574 80.8267C284.95 82.2692 286.051 75.8437 281.882 73.562C277.713 71.2803 274.907 79.5941 279.574 80.8267Z" fill="url(#paint39_radial_33_6)"/>
<path d="M303.855 100.129C303.732 100.287 303.575 100.415 303.396 100.503C303.216 100.591 303.019 100.637 302.819 100.637C302.619 100.637 302.422 100.591 302.242 100.503C302.063 100.415 301.906 100.287 301.783 100.129C302.132 99.5919 302.635 99.1716 303.225 98.923C303.371 98.8705 303.527 98.8486 303.682 98.8589C303.836 98.8692 303.988 98.9114 304.125 98.9828C304.263 99.0542 304.385 99.1533 304.483 99.2739C304.58 99.3945 304.652 99.5339 304.694 99.6836L304.091 100.602L303.855 100.129Z" fill="url(#paint40_radial_33_6)"/>
<path d="M288.909 110.384L288.385 109.676C287.571 110.366 286.625 110.884 285.605 111.197C285.095 111.324 284.595 111.49 284.111 111.695C283.87 111.812 283.663 111.99 283.512 112.211C283.36 112.431 283.268 112.687 283.245 112.954C283.245 113.951 284.478 114.449 285.474 114.397C286.104 114.376 286.722 114.218 287.284 113.932C287.845 113.647 288.338 113.241 288.725 112.744C289.096 112.234 289.296 111.619 289.296 110.987C289.296 110.356 289.096 109.741 288.725 109.23L287.703 109.938L288.909 110.384Z" fill="url(#paint41_radial_33_6)"/>
<path d="M283.009 103.591C283.245 103.25 283.009 103.093 282.537 103.198C282.095 103.373 281.68 103.612 281.305 103.906L278.683 105.794C278.158 106.162 277.582 106.607 277.477 106.975C277.372 107.342 277.791 107.394 278.211 107.263C278.702 107.11 279.17 106.889 279.601 106.607C281.121 105.689 282.878 104.431 283.219 103.329L282.354 103.513L283.009 103.591Z" fill="url(#paint42_radial_33_6)"/>
<path d="M280.099 98.3461C280.099 98.3922 280.09 98.4379 280.071 98.48C280.052 98.522 280.024 98.5594 279.989 98.5894C279.954 98.6194 279.913 98.6414 279.868 98.6537C279.824 98.6661 279.777 98.6685 279.732 98.6608C279.55 98.6277 279.384 98.5356 279.26 98.3985C279.148 98.2902 279.067 98.1546 279.024 98.0051C278.99 97.8622 279.006 97.7122 279.067 97.579C279.129 97.4459 279.234 97.3373 279.365 97.2708C279.493 97.1996 279.637 97.1622 279.784 97.1622C279.931 97.1622 280.075 97.1996 280.204 97.2708C280.319 97.3545 280.402 97.4747 280.44 97.6117C280.456 97.6846 280.443 97.7609 280.403 97.8245C280.364 97.8881 280.302 97.934 280.23 97.9527L280.099 98.3461Z" fill="url(#paint43_radial_33_6)"/>
<path d="M290.692 71.6211C291.269 71.0423 291.779 70.4 292.213 69.7066C292.145 69.6178 292.058 69.5456 291.958 69.4956C291.858 69.4456 291.748 69.4191 291.636 69.4181C291.338 69.4003 291.04 69.4433 290.759 69.5443C290.478 69.6454 290.221 69.8025 290.002 70.0061C289.784 70.2097 289.61 70.4555 289.489 70.7286C289.369 71.0017 289.305 71.2964 289.302 71.5949C289.298 71.7658 289.354 71.9327 289.46 72.067C289.557 72.1436 289.677 72.1852 289.8 72.1852C289.924 72.1852 290.044 72.1436 290.141 72.067C290.346 71.9461 290.524 71.7856 290.666 71.5949L290.692 71.6211Z" fill="url(#paint44_radial_33_6)"/>
<path d="M294.101 84.4722L293.865 84.0001C293.619 84.0765 293.4 84.2222 293.235 84.4197C293.104 84.6558 293.235 85.0492 293.524 84.9967C293.624 84.9701 293.715 84.9155 293.786 84.8394L294.494 84.2099L294.101 84.4722Z" fill="url(#paint45_radial_33_6)"/>
<path d="M255.95 65.2482C255.952 64.8258 255.872 64.407 255.714 64.0155C255.63 63.8228 255.49 63.6598 255.312 63.5476C255.135 63.4354 254.927 63.3791 254.717 63.3861C254.511 63.4138 254.318 63.5055 254.167 63.6483C253.947 63.8778 253.824 64.1831 253.824 64.5007C253.824 64.8183 253.947 65.1236 254.167 65.3531C254.411 65.5512 254.724 65.6456 255.038 65.6162C255.351 65.5868 255.641 65.4359 255.845 65.1957L255.95 65.2482Z" fill="url(#paint46_radial_33_6)"/>
<path d="M270.476 49.3286C270.57 49.4416 270.633 49.5772 270.658 49.7221C270.683 49.867 270.67 50.0159 270.619 50.154C270.569 50.2921 270.483 50.4146 270.37 50.509C270.258 50.6035 270.122 50.6668 269.978 50.6924C269.687 50.532 269.436 50.3079 269.243 50.0367C269.479 49.7425 269.815 49.5462 270.187 49.486L270.476 49.3286Z" fill="url(#paint47_radial_33_6)"/>
<path d="M275.589 58.6652C275.772 58.3505 275.143 58.062 274.933 58.3767C274.724 58.6914 274.933 59.1111 275.195 59.3471C275.344 59.2624 275.461 59.1332 275.532 58.9779C275.602 58.8225 275.622 58.6489 275.589 58.4816V58.6652Z" fill="url(#paint48_radial_33_6)"/>
<path d="M306.581 111.459L306.083 110.777C305.88 110.853 305.699 110.979 305.559 111.145C305.586 111.245 305.633 111.338 305.697 111.42C305.76 111.502 305.839 111.571 305.929 111.622C306.02 111.673 306.119 111.706 306.222 111.718C306.325 111.731 306.429 111.723 306.529 111.695L306.581 111.459Z" fill="url(#paint49_radial_33_6)"/>
<path d="M379.16 105.689L378.662 105.008C378.454 105.09 378.267 105.215 378.111 105.375C378.183 105.57 378.324 105.732 378.508 105.829C378.693 105.926 378.906 105.951 379.108 105.899L379.16 105.689Z" fill="url(#paint50_radial_33_6)"/>
<path d="M342.058 99.7885C342.432 100.107 342.722 100.513 342.9 100.971C343.079 101.428 343.141 101.923 343.081 102.411C343.072 102.54 343.016 102.662 342.923 102.752C342.841 102.792 342.752 102.812 342.661 102.812C342.57 102.812 342.481 102.792 342.399 102.752C341.297 102.542 339.986 102.096 339.777 100.995C339.762 100.762 339.804 100.53 339.9 100.317C339.995 100.104 340.14 99.9173 340.323 99.7729C340.506 99.6285 340.721 99.5307 340.95 99.4877C341.179 99.4448 341.415 99.458 341.638 99.5262L341.874 100.418L342.058 99.7885Z" fill="url(#paint51_radial_33_6)"/>
<path d="M325.461 189.195C325.617 188.361 325.556 187.502 325.286 186.698C325.015 185.895 324.542 185.174 323.913 184.605C323.105 184.843 322.366 185.273 321.759 185.857C321.152 186.442 320.695 187.164 320.426 187.962C320.199 188.772 320.3 189.64 320.707 190.376C321.114 191.112 321.795 191.659 322.602 191.896C324.281 192.185 325.932 190.113 325.015 188.723L325.461 189.195Z" fill="url(#paint52_radial_33_6)"/>
<path d="M320.478 174.036C320.319 173.48 320.081 172.95 319.77 172.462C319.77 172.462 319.77 172.462 319.613 172.462C319.545 172.438 319.471 172.438 319.403 172.462C318.879 172.751 318.827 173.695 318.223 173.721C318.12 173.696 318.012 173.696 317.909 173.721C317.778 173.721 317.909 174.062 317.909 174.193C318.076 174.349 318.276 174.467 318.494 174.537C318.711 174.608 318.942 174.63 319.169 174.603C319.396 174.576 319.614 174.499 319.809 174.378C320.003 174.258 320.169 174.096 320.295 173.905V174.141L320.478 174.036Z" fill="url(#paint53_radial_33_6)"/>
<path d="M337.6 152.635C337.306 151.594 336.856 150.603 336.263 149.698C336.263 149.698 336.106 149.462 335.975 149.435C335.849 149.384 335.708 149.384 335.581 149.435C334.611 149.986 334.48 151.743 333.379 151.77C333.169 151.77 332.933 151.77 332.776 151.77C332.618 151.77 332.776 152.399 332.907 152.661C333.223 152.953 333.599 153.172 334.008 153.303C334.417 153.435 334.85 153.476 335.276 153.424C335.703 153.371 336.113 153.227 336.478 153C336.843 152.773 337.155 152.47 337.391 152.11V152.583L337.6 152.635Z" fill="url(#paint54_radial_33_6)"/>
<path d="M323.704 164.385C323.761 164 323.731 163.607 323.618 163.235C323.505 162.864 323.31 162.521 323.048 162.234C322.747 162.426 322.495 162.686 322.314 162.995C322.218 163.143 322.167 163.316 322.167 163.493C322.167 163.67 322.218 163.843 322.314 163.991C322.629 164.332 323.205 164.253 323.677 164.149L323.468 164.489L323.704 164.385Z" fill="url(#paint55_radial_33_6)"/>
<path d="M318.459 162.129C318.447 162.02 318.412 161.915 318.357 161.82C318.302 161.725 318.227 161.643 318.138 161.579C318.049 161.515 317.948 161.47 317.841 161.447C317.734 161.425 317.623 161.425 317.516 161.447C316.953 161.444 316.391 161.391 315.837 161.29C316.467 162.024 317.07 162.785 317.673 163.545C317.731 163.595 317.776 163.658 317.804 163.729C317.804 163.991 317.568 164.201 317.516 164.463C317.463 164.725 317.751 165.171 318.092 165.355C320.557 166.719 318.879 163.283 318.459 162.129Z" fill="url(#paint56_radial_33_6)"/>
<path d="M326.509 145.161L326.011 144.479C325.784 144.646 325.614 144.879 325.524 145.147C325.435 145.415 325.431 145.703 325.513 145.974C325.749 146.498 326.614 146.655 326.876 146.157C327.139 145.659 327.217 145.318 327.506 145.501L326.509 145.161Z" fill="url(#paint57_radial_33_6)"/>
<path d="M334.533 197.561C334.486 197.099 334.327 196.655 334.072 196.266C333.816 195.878 333.471 195.558 333.064 195.332C332.199 194.938 330.967 195.332 330.94 196.381C330.926 196.654 331.01 196.924 331.176 197.142C331.28 197.267 331.404 197.374 331.544 197.456C332.025 197.868 332.64 198.092 333.274 198.086C333.587 198.053 333.875 197.901 334.08 197.662C334.285 197.423 334.391 197.115 334.375 196.801L334.533 197.561Z" fill="url(#paint58_radial_33_6)"/>
<path d="M324.254 173.905C324.431 174.063 324.551 174.275 324.595 174.508C324.294 174.474 324.005 174.372 323.75 174.208C323.496 174.044 323.282 173.824 323.127 173.564C322.917 173.302 322.707 172.934 322.891 172.646C323.074 172.357 323.258 172.357 323.441 172.2C323.625 172.043 323.992 171.256 324.464 171.308C324.594 171.342 324.71 171.416 324.795 171.52C324.879 171.623 324.929 171.751 324.936 171.885C324.921 172.155 324.84 172.416 324.7 172.646L323.966 174.246L324.254 173.905Z" fill="url(#paint59_radial_33_6)"/>
<path d="M318.066 169.158C318.182 169.126 318.288 169.065 318.374 168.98C318.46 168.896 318.523 168.791 318.557 168.676C318.592 168.56 318.596 168.438 318.569 168.32C318.543 168.203 318.487 168.094 318.407 168.004C318.159 168.048 317.93 168.167 317.752 168.345C317.673 168.446 317.63 168.571 317.63 168.699C317.63 168.827 317.673 168.952 317.752 169.053C317.784 169.107 317.83 169.152 317.885 169.183C317.941 169.214 318.003 169.231 318.066 169.231C318.129 169.231 318.192 169.214 318.247 169.183C318.302 169.152 318.348 169.107 318.381 169.053L318.066 169.158Z" fill="url(#paint60_radial_33_6)"/>
<path d="M349.085 182.586C349.182 182.465 349.247 182.322 349.275 182.169C349.304 182.017 349.294 181.86 349.248 181.712C349.201 181.565 349.119 181.431 349.008 181.322C348.897 181.214 348.762 181.134 348.613 181.091C348.295 181.035 347.968 181.095 347.689 181.258C347.411 181.421 347.199 181.678 347.092 181.983C347.034 182.11 347.003 182.249 347.003 182.389C347.003 182.529 347.034 182.668 347.092 182.796C347.201 182.98 347.369 183.122 347.57 183.198C347.77 183.275 347.99 183.281 348.194 183.215C348.6 183.084 348.975 182.869 349.295 182.586H349.085Z" fill="url(#paint61_radial_33_6)"/>
<path d="M338.545 189.011L337.286 190.69C337.163 190.844 337.074 191.023 337.024 191.214C337.014 191.423 337.06 191.631 337.155 191.818C337.443 192.499 337.889 193.313 338.649 193.286C339.41 193.26 339.777 192.237 340.118 191.503C340.773 190.139 344.261 187.936 342.976 186.258C341.691 184.579 339.436 187.989 338.545 189.011Z" fill="url(#paint62_radial_33_6)"/>
<path d="M345.441 179.465L345.834 179.832C345.468 180.024 345.066 180.14 344.654 180.173C344.45 180.18 344.25 180.124 344.08 180.011C343.911 179.898 343.781 179.734 343.71 179.544C343.71 179.124 343.998 178.652 344.392 178.809C344.789 178.923 345.138 179.162 345.388 179.491L345.441 179.465Z" fill="url(#paint63_radial_33_6)"/>
<path d="M321.265 167.505C321.265 167.82 321.658 168.004 321.973 167.925C322.261 167.783 322.541 167.626 322.812 167.453C322.959 167.381 323.12 167.344 323.284 167.344C323.448 167.344 323.609 167.381 323.756 167.453C323.847 167.483 323.928 167.538 323.988 167.613C324.049 167.687 324.086 167.777 324.097 167.873C324.135 167.992 324.135 168.12 324.097 168.24C323.805 168.806 323.36 169.279 322.812 169.604C322.547 169.777 322.237 169.87 321.921 169.87C321.604 169.87 321.294 169.777 321.029 169.604C320.86 169.457 320.734 169.267 320.665 169.055C320.596 168.842 320.586 168.615 320.636 168.397C320.682 168.184 320.784 167.986 320.931 167.825C321.078 167.663 321.266 167.544 321.475 167.479L321.265 167.505Z" fill="url(#paint64_radial_33_6)"/>
<path d="M324.543 159.611C324.611 159.423 324.602 159.216 324.519 159.035C324.435 158.853 324.284 158.712 324.097 158.641C323.905 158.575 323.699 158.563 323.501 158.604C323.302 158.646 323.119 158.74 322.969 158.877C322.898 158.924 322.845 158.993 322.816 159.074C322.788 159.154 322.787 159.242 322.812 159.323C322.896 159.41 323.007 159.466 323.127 159.48L324.595 159.743L324.543 159.611Z" fill="url(#paint65_radial_33_6)"/>
<path d="M324.543 181.668C324.423 181.825 324.268 181.953 324.091 182.041C323.913 182.129 323.718 182.175 323.52 182.175C323.322 182.175 323.127 182.129 322.949 182.041C322.772 181.953 322.617 181.825 322.498 181.668C322.837 181.132 323.331 180.712 323.913 180.461C324.516 180.278 325.329 180.461 325.382 181.222L324.779 182.14L324.543 181.668Z" fill="url(#paint66_radial_33_6)"/>
<path d="M327.296 192.945C327.112 192.736 326.955 192.499 326.772 192.263C326.575 192.352 326.398 192.477 326.247 192.631C326.308 192.835 326.446 193.007 326.633 193.11C326.819 193.213 327.038 193.238 327.243 193.181L327.296 192.945Z" fill="url(#paint67_radial_33_6)"/>
<path d="M362.877 181.327C363.249 181.646 363.535 182.054 363.709 182.512C363.883 182.97 363.939 183.464 363.873 183.95C363.863 184.073 363.817 184.192 363.742 184.291C363.658 184.336 363.563 184.361 363.467 184.361C363.371 184.361 363.276 184.336 363.192 184.291C362.09 184.107 360.779 183.661 360.57 182.56C360.555 182.327 360.597 182.094 360.692 181.881C360.788 181.669 360.933 181.482 361.116 181.338C361.299 181.193 361.514 181.095 361.743 181.052C361.972 181.009 362.208 181.023 362.431 181.091L362.694 181.983L362.877 181.327Z" fill="url(#paint68_radial_33_6)"/>
<path d="M305.638 152.74C306.009 153.059 306.295 153.467 306.469 153.925C306.643 154.383 306.7 154.877 306.634 155.363C306.641 155.426 306.633 155.49 306.611 155.549C306.588 155.609 306.551 155.662 306.503 155.704C306.372 155.704 306.136 155.704 305.952 155.704C304.877 155.494 303.54 155.048 303.33 153.946C303.311 153.715 303.349 153.482 303.441 153.269C303.533 153.056 303.675 152.868 303.857 152.723C304.038 152.578 304.252 152.48 304.481 152.437C304.709 152.394 304.944 152.408 305.166 152.478L305.428 153.369L305.638 152.74Z" fill="url(#paint69_radial_33_6)"/>
</g>
<g style="mix-blend-mode:soft-light" opacity="0.51">
<path d="M239.798 357.989C238.749 358.33 237.779 358.671 236.756 358.959C233.97 355.283 231.496 351.379 229.362 347.289L227.658 344.272C216.33 324.629 201.857 310.178 185.705 302.546C167.167 293.76 145.849 293.209 125.581 293.891C101.694 294.704 74.5557 297.615 54.3134 312.932L52.5566 310.598C73.402 294.862 101.143 291.793 125.502 290.928C146.138 290.22 167.875 290.928 186.963 299.897C203.587 307.765 218.428 322.636 230.122 342.804C230.699 343.8 231.276 344.849 231.827 345.846C234.105 350.13 236.773 354.195 239.798 357.989Z" fill="url(#paint70_radial_33_6)" fill-opacity="0.6"/>
</g>
<g style="mix-blend-mode:soft-light" opacity="0.51">
<path d="M325.8 67.9755L320.923 67.0051C299.808 62.6726 278.289 60.6152 256.735 60.8681C254.165 61.0657 251.581 60.7537 249.131 59.9502C243.887 57.8521 241.816 52.5019 239.954 47.309C239.196 45.0641 238.267 42.8808 237.175 40.7786C232.481 32.5172 222.36 29.6847 214.468 29.8159C206.574 30.3157 198.795 31.9498 191.367 34.6678L187.67 35.8218C166.877 42.1161 150.122 44.0044 134.914 41.7752C120.179 39.8348 106.593 32.7803 96.5273 21.843C97.4451 21.3709 98.3366 20.8726 99.1494 20.4268C108.717 30.5161 121.468 36.9996 135.255 38.7854C149.991 40.9622 166.353 39.1001 186.674 32.9368L190.371 31.7829C198.069 28.9736 206.132 27.2866 214.31 26.7736C223.015 26.7736 234.29 29.8683 239.613 39.205C240.781 41.4623 241.78 43.8028 242.602 46.2075C244.333 51.0069 246.011 55.5179 250.128 57.144C252.178 57.7827 254.332 58.0231 256.473 57.8521C278.316 57.6301 300.119 59.7758 321.5 64.2514L322.837 64.5136C323.86 65.5627 324.856 66.874 325.8 67.9755Z" fill="url(#paint71_radial_33_6)" fill-opacity="0.6"/>
</g>
<defs>
<radialGradient id="paint0_radial_33_6" cx="0" cy="0" r="1" gradientUnits="userSpaceOnUse" gradientTransform="translate(150.909 353.871) scale(358.331 358.412)">
<stop offset="0.59" stop-color="#42218E"/>
<stop offset="1" stop-color="#8657E8"/>
</radialGradient>
<radialGradient id="paint1_radial_33_6" cx="0" cy="0" r="1" gradientUnits="userSpaceOnUse" gradientTransform="translate(149.2 284.05) scale(354.249 150.58)">
<stop offset="0.59" stop-color="#42218E"/>
<stop offset="1" stop-color="#8657E8"/>
</radialGradient>
<radialGradient id="paint2_radial_33_6" cx="0" cy="0" r="1" gradientUnits="userSpaceOnUse" gradientTransform="translate(159.507 184.464) scale(344.041 107.491)">
<stop offset="0.59" stop-color="#42218E"/>
<stop offset="1" stop-color="#8657E8"/>
</radialGradient>
<radialGradient id="paint3_radial_33_6" cx="0" cy="0" r="1" gradientUnits="userSpaceOnUse" gradientTransform="translate(257.453 91.6105) scale(8.17134 11.9662)">
<stop offset="0.59" stop-color="white"/>
<stop offset="1" stop-color="#8657E8"/>
</radialGradient>
<radialGradient id="paint4_radial_33_6" cx="0" cy="0" r="1" gradientUnits="userSpaceOnUse" gradientTransform="translate(301.768 110.126) scale(5.11781 7.1499)">
<stop offset="0.59" stop-color="white"/>
<stop offset="1" stop-color="#8657E8"/>
</radialGradient>
<radialGradient id="paint5_radial_33_6" cx="0" cy="0" r="1" gradientUnits="userSpaceOnUse" gradientTransform="translate(298.247 92.8816) scale(2.51931 2.13556)">
<stop offset="0.59" stop-color="white"/>
<stop offset="1" stop-color="#8657E8"/>
</radialGradient>
<radialGradient id="paint6_radial_33_6" cx="0" cy="0" r="1" gradientUnits="userSpaceOnUse" gradientTransform="translate(284.954 78.8597) scale(4.78241 3.95112)">
<stop offset="0.59" stop-color="white"/>
<stop offset="1" stop-color="#8657E8"/>
</radialGradient>
<radialGradient id="paint7_radial_33_6" cx="0" cy="0" r="1" gradientUnits="userSpaceOnUse" gradientTransform="translate(314.024 71.7641) scale(4.75278 3.95768)">
<stop offset="0.59" stop-color="white"/>
<stop offset="1" stop-color="#8657E8"/>
</radialGradient>
<radialGradient id="paint8_radial_33_6" cx="0" cy="0" r="1" gradientUnits="userSpaceOnUse" gradientTransform="translate(302.148 82.8713) scale(1.5257 2.20362)">
<stop offset="0.59" stop-color="white"/>
<stop offset="1" stop-color="#8657E8"/>
</radialGradient>
<radialGradient id="paint9_radial_33_6" cx="0" cy="0" r="1" gradientUnits="userSpaceOnUse" gradientTransform="translate(296.612 83.9775) scale(3.47241 4.33346)">
<stop offset="0.59" stop-color="white"/>
<stop offset="1" stop-color="#8657E8"/>
</radialGradient>
<radialGradient id="paint10_radial_33_6" cx="0" cy="0" r="1" gradientUnits="userSpaceOnUse" gradientTransform="translate(269.016 73.6922) scale(3.44491 4.19608)">
<stop offset="0.59" stop-color="white"/>
<stop offset="1" stop-color="#8657E8"/>
</radialGradient>
<radialGradient id="paint11_radial_33_6" cx="0" cy="0" r="1" gradientUnits="userSpaceOnUse" gradientTransform="translate(305.66 64.841) scale(2.00914 1.92516)">
<stop offset="0.59" stop-color="white"/>
<stop offset="1" stop-color="#8657E8"/>
</radialGradient>
<radialGradient id="paint12_radial_33_6" cx="0" cy="0" r="1" gradientUnits="userSpaceOnUse" gradientTransform="translate(262.039 63.9801) scale(2.2535 2.22423)">
<stop offset="0.59" stop-color="white"/>
<stop offset="1" stop-color="#8657E8"/>
</radialGradient>
<radialGradient id="paint13_radial_33_6" cx="0" cy="0" r="1" gradientUnits="userSpaceOnUse" gradientTransform="translate(272.898 73.2567) scale(2.26952 1.94879)">
<stop offset="0.59" stop-color="white"/>
<stop offset="1" stop-color="#8657E8"/>
</radialGradient>
<radialGradient id="paint14_radial_33_6" cx="0" cy="0" r="1" gradientUnits="userSpaceOnUse" gradientTransform="translate(311.728 116.446) scale(3.51482 2.84172)">
<stop offset="0.59" stop-color="white"/>
<stop offset="1" stop-color="#8657E8"/>
</radialGradient>
<radialGradient id="paint15_radial_33_6" cx="0" cy="0" r="1" gradientUnits="userSpaceOnUse" gradientTransform="translate(333.453 132.998) scale(7.05354 6.6297)">
<stop offset="0.59" stop-color="white"/>
<stop offset="1" stop-color="#8657E8"/>
</radialGradient>
<radialGradient id="paint16_radial_33_6" cx="0" cy="0" r="1" gradientUnits="userSpaceOnUse" gradientTransform="translate(302.986 92.8563) scale(2.05222 3.12838)">
<stop offset="0.59" stop-color="white"/>
<stop offset="1" stop-color="#8657E8"/>
</radialGradient>
<radialGradient id="paint17_radial_33_6" cx="0" cy="0" r="1" gradientUnits="userSpaceOnUse" gradientTransform="translate(296.437 100.148) scale(1.60681 1.66364)">
<stop offset="0.59" stop-color="white"/>
<stop offset="1" stop-color="#8657E8"/>
</radialGradient>
<radialGradient id="paint18_radial_33_6" cx="0" cy="0" r="1" gradientUnits="userSpaceOnUse" gradientTransform="translate(294.003 93.1998) scale(2.6237 2.41895)">
<stop offset="0.59" stop-color="white"/>
<stop offset="1" stop-color="#8657E8"/>
</radialGradient>
<radialGradient id="paint19_radial_33_6" cx="0" cy="0" r="1" gradientUnits="userSpaceOnUse" gradientTransform="translate(293.773 89.0147) scale(1.15293 1.36007)">
<stop offset="0.59" stop-color="white"/>
<stop offset="1" stop-color="#8657E8"/>
</radialGradient>
<radialGradient id="paint20_radial_33_6" cx="0" cy="0" r="1" gradientUnits="userSpaceOnUse" gradientTransform="translate(261.102 95.3878) scale(1.1529 1.36007)">
<stop offset="0.59" stop-color="white"/>
<stop offset="1" stop-color="#8657E8"/>
</radialGradient>
<radialGradient id="paint21_radial_33_6" cx="0" cy="0" r="1" gradientUnits="userSpaceOnUse" gradientTransform="translate(297.428 87.5976) scale(0.960047 1.17327)">
<stop offset="0.59" stop-color="white"/>
<stop offset="1" stop-color="#8657E8"/>
</radialGradient>
<radialGradient id="paint22_radial_33_6" cx="0" cy="0" r="1" gradientUnits="userSpaceOnUse" gradientTransform="translate(264.156 51.7712) scale(0.95674 1.1989)">
<stop offset="0.59" stop-color="white"/>
<stop offset="1" stop-color="#8657E8"/>
</radialGradient>
<radialGradient id="paint23_radial_33_6" cx="0" cy="0" r="1" gradientUnits="userSpaceOnUse" gradientTransform="translate(252.88 75.1865) scale(2.00067 2.17676)">
<stop offset="0.59" stop-color="white"/>
<stop offset="1" stop-color="#8657E8"/>
</radialGradient>
<radialGradient id="paint24_radial_33_6" cx="0" cy="0" r="1" gradientUnits="userSpaceOnUse" gradientTransform="translate(267.636 81.9608) scale(1.9281 2.39716)">
<stop offset="0.59" stop-color="white"/>
<stop offset="1" stop-color="#8657E8"/>
</radialGradient>
<radialGradient id="paint25_radial_33_6" cx="0" cy="0" r="1" gradientUnits="userSpaceOnUse" gradientTransform="translate(327.265 101.563) scale(2.22803 2.13652)">
<stop offset="0.59" stop-color="white"/>
<stop offset="1" stop-color="#8657E8"/>
</radialGradient>
<radialGradient id="paint26_radial_33_6" cx="0" cy="0" r="1" gradientUnits="userSpaceOnUse" gradientTransform="translate(270.295 69.2618) scale(1.62362 2.25896)">
<stop offset="0.59" stop-color="white"/>
<stop offset="1" stop-color="#8657E8"/>
</radialGradient>
<radialGradient id="paint27_radial_33_6" cx="0" cy="0" r="1" gradientUnits="userSpaceOnUse" gradientTransform="translate(268.328 75.3714) scale(1.56283 1.45272)">
<stop offset="0.59" stop-color="white"/>
<stop offset="1" stop-color="#8657E8"/>
</radialGradient>
<radialGradient id="paint28_radial_33_6" cx="0" cy="0" r="1" gradientUnits="userSpaceOnUse" gradientTransform="translate(318.893 111.485) scale(6.07528 7.31592)">
<stop offset="0.59" stop-color="white"/>
<stop offset="1" stop-color="#8657E8"/>
</radialGradient>
<radialGradient id="paint29_radial_33_6" cx="0" cy="0" r="1" gradientUnits="userSpaceOnUse" gradientTransform="translate(323.88 98.5862) scale(2.10079 1.36247)">
<stop offset="0.59" stop-color="white"/>
<stop offset="1" stop-color="#8657E8"/>
</radialGradient>
<radialGradient id="paint30_radial_33_6" cx="0" cy="0" r="1" gradientUnits="userSpaceOnUse" gradientTransform="translate(291.26 95.9224) scale(1.66877 0.945379)">
<stop offset="0.59" stop-color="white"/>
<stop offset="1" stop-color="#8657E8"/>
</radialGradient>
<radialGradient id="paint31_radial_33_6" cx="0" cy="0" r="1" gradientUnits="userSpaceOnUse" gradientTransform="translate(284.292 98.2134) scale(2.36041 2.36391)">
<stop offset="0.59" stop-color="white"/>
<stop offset="1" stop-color="#8657E8"/>
</radialGradient>
<radialGradient id="paint32_radial_33_6" cx="0" cy="0" r="1" gradientUnits="userSpaceOnUse" gradientTransform="translate(284.113 93.6414) scale(0.846493 1.00335)">
<stop offset="0.59" stop-color="white"/>
<stop offset="1" stop-color="#8657E8"/>
</radialGradient>
<radialGradient id="paint33_radial_33_6" cx="0" cy="0" r="1" gradientUnits="userSpaceOnUse" gradientTransform="translate(272.652 92.6449) scale(0.839478 1.0034)">
<stop offset="0.59" stop-color="white"/>
<stop offset="1" stop-color="#8657E8"/>
</radialGradient>
<radialGradient id="paint34_radial_33_6" cx="0" cy="0" r="1" gradientUnits="userSpaceOnUse" gradientTransform="translate(301.28 88.2525) scale(3.53456 2.47898)">
<stop offset="0.59" stop-color="white"/>
<stop offset="1" stop-color="#8657E8"/>
</radialGradient>
<radialGradient id="paint35_radial_33_6" cx="0" cy="0" r="1" gradientUnits="userSpaceOnUse" gradientTransform="translate(258.387 36.2605) scale(3.52749 2.48415)">
<stop offset="0.59" stop-color="white"/>
<stop offset="1" stop-color="#8657E8"/>
</radialGradient>
<radialGradient id="paint36_radial_33_6" cx="0" cy="0" r="1" gradientUnits="userSpaceOnUse" gradientTransform="translate(302.831 78.1629) scale(1.74388 1.13641)">
<stop offset="0.59" stop-color="white"/>
<stop offset="1" stop-color="#8657E8"/>
</radialGradient>
<radialGradient id="paint37_radial_33_6" cx="0" cy="0" r="1" gradientUnits="userSpaceOnUse" gradientTransform="translate(256.588 50.1324) scale(5.37149 3.15169)">
<stop offset="0.59" stop-color="white"/>
<stop offset="1" stop-color="#8657E8"/>
</radialGradient>
<radialGradient id="paint38_radial_33_6" cx="0" cy="0" r="1" gradientUnits="userSpaceOnUse" gradientTransform="translate(285.406 62.6244) scale(3.20083 3.65111)">
<stop offset="0.59" stop-color="white"/>
<stop offset="1" stop-color="#8657E8"/>
</radialGradient>
<radialGradient id="paint39_radial_33_6" cx="0" cy="0" r="1" gradientUnits="userSpaceOnUse" gradientTransform="translate(280.144 80.7572) scale(7.1009 7.68682)">
<stop offset="0.59" stop-color="white"/>
<stop offset="1" stop-color="#8657E8"/>
</radialGradient>
<radialGradient id="paint40_radial_33_6" cx="0" cy="0" r="1" gradientUnits="userSpaceOnUse" gradientTransform="translate(302.981 100.574) scale(2.84379 1.73941)">
<stop offset="0.59" stop-color="white"/>
<stop offset="1" stop-color="#8657E8"/>
</radialGradient>
<radialGradient id="paint41_radial_33_6" cx="0" cy="0" r="1" gradientUnits="userSpaceOnUse" gradientTransform="translate(285.735 114.218) scale(5.91221 5.05149)">
<stop offset="0.59" stop-color="white"/>
<stop offset="1" stop-color="#8657E8"/>
</radialGradient>
<radialGradient id="paint42_radial_33_6" cx="0" cy="0" r="1" gradientUnits="userSpaceOnUse" gradientTransform="translate(279.83 107.181) scale(5.62673 4.06674)">
<stop offset="0.59" stop-color="white"/>
<stop offset="1" stop-color="#8657E8"/>
</radialGradient>
<radialGradient id="paint43_radial_33_6" cx="0" cy="0" r="1" gradientUnits="userSpaceOnUse" gradientTransform="translate(279.599 98.612) scale(1.40697 1.46839)">
<stop offset="0.59" stop-color="white"/>
<stop offset="1" stop-color="#8657E8"/>
</radialGradient>
<radialGradient id="paint44_radial_33_6" cx="0" cy="0" r="1" gradientUnits="userSpaceOnUse" gradientTransform="translate(290.5 72.0872) scale(2.844 2.7073)">
<stop offset="0.59" stop-color="white"/>
<stop offset="1" stop-color="#8657E8"/>
</radialGradient>
<radialGradient id="paint45_radial_33_6" cx="0" cy="0" r="1" gradientUnits="userSpaceOnUse" gradientTransform="translate(293.723 84.9661) scale(1.27949 0.978341)">
<stop offset="0.59" stop-color="white"/>
<stop offset="1" stop-color="#8657E8"/>
</radialGradient>
<radialGradient id="paint46_radial_33_6" cx="0" cy="0" r="1" gradientUnits="userSpaceOnUse" gradientTransform="translate(254.699 65.5424) scale(2.07654 2.18458)">
<stop offset="0.59" stop-color="white"/>
<stop offset="1" stop-color="#8657E8"/>
</radialGradient>
<radialGradient id="paint47_radial_33_6" cx="0" cy="0" r="1" gradientUnits="userSpaceOnUse" gradientTransform="translate(269.831 50.6442) scale(1.39428 1.33242)">
<stop offset="0.59" stop-color="white"/>
<stop offset="1" stop-color="#8657E8"/>
</radialGradient>
<radialGradient id="paint48_radial_33_6" cx="0" cy="0" r="1" gradientUnits="userSpaceOnUse" gradientTransform="translate(275.166 59.308) scale(0.756532 1.08094)">
<stop offset="0.59" stop-color="white"/>
<stop offset="1" stop-color="#8657E8"/>
</radialGradient>
<radialGradient id="paint49_radial_33_6" cx="0" cy="0" r="1" gradientUnits="userSpaceOnUse" gradientTransform="translate(305.98 111.691) scale(0.999221 0.925068)">
<stop offset="0.59" stop-color="white"/>
<stop offset="1" stop-color="#8657E8"/>
</radialGradient>
<radialGradient id="paint50_radial_33_6" cx="0" cy="0" r="1" gradientUnits="userSpaceOnUse" gradientTransform="translate(378.543 105.893) scale(1.02479 0.8969)">
<stop offset="0.59" stop-color="white"/>
<stop offset="1" stop-color="#8657E8"/>
</radialGradient>
<radialGradient id="paint51_radial_33_6" cx="0" cy="0" r="1" gradientUnits="userSpaceOnUse" gradientTransform="translate(341.144 102.694) scale(3.25275 3.27209)">
<stop offset="0.59" stop-color="white"/>
<stop offset="1" stop-color="#8657E8"/>
</radialGradient>
<radialGradient id="paint52_radial_33_6" cx="0" cy="0" r="1" gradientUnits="userSpaceOnUse" gradientTransform="translate(322.463 191.665) scale(5.11823 7.14989)">
<stop offset="0.59" stop-color="white"/>
<stop offset="1" stop-color="#8657E8"/>
</radialGradient>
<radialGradient id="paint53_radial_33_6" cx="0" cy="0" r="1" gradientUnits="userSpaceOnUse" gradientTransform="translate(318.932 174.538) scale(2.56765 2.12017)">
<stop offset="0.59" stop-color="white"/>
<stop offset="1" stop-color="#8657E8"/>
</radialGradient>
<radialGradient id="paint54_radial_33_6" cx="0" cy="0" r="1" gradientUnits="userSpaceOnUse" gradientTransform="translate(334.722 153.303) scale(4.77841 3.95554)">
<stop offset="0.59" stop-color="white"/>
<stop offset="1" stop-color="#8657E8"/>
</radialGradient>
<radialGradient id="paint55_radial_33_6" cx="0" cy="0" r="1" gradientUnits="userSpaceOnUse" gradientTransform="translate(322.811 164.41) scale(1.52913 2.20362)">
<stop offset="0.59" stop-color="white"/>
<stop offset="1" stop-color="#8657E8"/>
</radialGradient>
<radialGradient id="paint56_radial_33_6" cx="0" cy="0" r="1" gradientUnits="userSpaceOnUse" gradientTransform="translate(317.306 165.515) scale(3.48808 4.27944)">
<stop offset="0.59" stop-color="white"/>
<stop offset="1" stop-color="#8657E8"/>
</radialGradient>
<radialGradient id="paint57_radial_33_6" cx="0" cy="0" r="1" gradientUnits="userSpaceOnUse" gradientTransform="translate(326.298 146.389) scale(2.0044 1.93522)">
<stop offset="0.59" stop-color="white"/>
<stop offset="1" stop-color="#8657E8"/>
</radialGradient>
<radialGradient id="paint58_radial_33_6" cx="0" cy="0" r="1" gradientUnits="userSpaceOnUse" gradientTransform="translate(332.418 197.983) scale(3.51143 2.83679)">
<stop offset="0.59" stop-color="white"/>
<stop offset="1" stop-color="#8657E8"/>
</radialGradient>
<radialGradient id="paint59_radial_33_6" cx="0" cy="0" r="1" gradientUnits="userSpaceOnUse" gradientTransform="translate(323.691 174.395) scale(2.06715 3.12852)">
<stop offset="0.59" stop-color="white"/>
<stop offset="1" stop-color="#8657E8"/>
</radialGradient>
<radialGradient id="paint60_radial_33_6" cx="0" cy="0" r="1" gradientUnits="userSpaceOnUse" gradientTransform="translate(318.024 169.187) scale(0.934467 1.19889)">
<stop offset="0.59" stop-color="white"/>
<stop offset="1" stop-color="#8657E8"/>
</radialGradient>
<radialGradient id="paint61_radial_33_6" cx="0" cy="0" r="1" gradientUnits="userSpaceOnUse" gradientTransform="translate(347.946 183.183) scale(2.23933 2.13935)">
<stop offset="0.59" stop-color="white"/>
<stop offset="1" stop-color="#8657E8"/>
</radialGradient>
<radialGradient id="paint62_radial_33_6" cx="0" cy="0" r="1" gradientUnits="userSpaceOnUse" gradientTransform="translate(339.588 193.022) scale(6.09236 7.31422)">
<stop offset="0.59" stop-color="white"/>
<stop offset="1" stop-color="#8657E8"/>
</radialGradient>
<radialGradient id="paint63_radial_33_6" cx="0" cy="0" r="1" gradientUnits="userSpaceOnUse" gradientTransform="translate(344.584 180.124) scale(2.07522 1.36334)">
<stop offset="0.59" stop-color="white"/>
<stop offset="1" stop-color="#8657E8"/>
</radialGradient>
<radialGradient id="paint64_radial_33_6" cx="0" cy="0" r="1" gradientUnits="userSpaceOnUse" gradientTransform="translate(322.053 169.781) scale(3.4403 2.46797)">
<stop offset="0.59" stop-color="white"/>
<stop offset="1" stop-color="#8657E8"/>
</radialGradient>
<radialGradient id="paint65_radial_33_6" cx="0" cy="0" r="1" gradientUnits="userSpaceOnUse" gradientTransform="translate(323.535 159.701) scale(1.75992 1.13558)">
<stop offset="0.59" stop-color="white"/>
<stop offset="1" stop-color="#8657E8"/>
</radialGradient>
<radialGradient id="paint66_radial_33_6" cx="0" cy="0" r="1" gradientUnits="userSpaceOnUse" gradientTransform="translate(323.684 182.112) scale(2.81822 1.73848)">
<stop offset="0.59" stop-color="white"/>
<stop offset="1" stop-color="#8657E8"/>
</radialGradient>
<radialGradient id="paint67_radial_33_6" cx="0" cy="0" r="1" gradientUnits="userSpaceOnUse" gradientTransform="translate(326.679 193.178) scale(1.02479 0.925808)">
<stop offset="0.59" stop-color="white"/>
<stop offset="1" stop-color="#8657E8"/>
</radialGradient>
<radialGradient id="paint68_radial_33_6" cx="0" cy="0" r="1" gradientUnits="userSpaceOnUse" gradientTransform="translate(361.939 184.243) scale(3.25688 3.25619)">
<stop offset="0.59" stop-color="white"/>
<stop offset="1" stop-color="#8657E8"/>
</radialGradient>
<radialGradient id="paint69_radial_33_6" cx="0" cy="0" r="1" gradientUnits="userSpaceOnUse" gradientTransform="translate(304.698 155.587) scale(3.25888 3.21531)">
<stop offset="0.59" stop-color="white"/>
<stop offset="1" stop-color="#8657E8"/>
</radialGradient>
<radialGradient id="paint70_radial_33_6" cx="0" cy="0" r="1" gradientUnits="userSpaceOnUse" gradientTransform="translate(129.607 356.546) scale(182.953 66.6677)">
<stop offset="0.59" stop-color="#42218E"/>
<stop offset="1" stop-color="#8657E8"/>
</radialGradient>
<radialGradient id="paint71_radial_33_6" cx="0" cy="0" r="1" gradientUnits="userSpaceOnUse" gradientTransform="translate(190.873 66.2936) scale(224.022 46.4554)">
<stop offset="0.59" stop-color="#42218E"/>
<stop offset="1" stop-color="#8657E8"/>
</radialGradient>
</defs>
</svg>
