
  <svg viewBox="0 0 320 320" xmlns="http://www.w3.org/2000/svg">
    <filter id="blur">
      <feGaussianBlur stdDeviation=".1" />
    </filter>
    <pattern id="pattern" width="640" height="640" patternUnits="userSpaceOnUse">
      <circle cx="58" cy="177" r="0.6343247050123104" fill="hsl(197, 100%, 87%)" /><circle cx="277" cy="132" r="0.8651751621683034" fill="hsl(197, 100%, 56%)" /><circle cx="1" cy="127" r="0.49109794242948845" fill="hsl(197, 100%, 56%)" /><circle cx="298" cy="54" r="0.8534017289043847" fill="hsl(197, 100%, 75%)" /><circle cx="188" cy="187" r="0.8610954606928272" fill="hsl(197, 100%, 95%)" /><circle cx="68" cy="9" r="0.2827754866126435" fill="hsl(197, 100%, 93%)" /><circle cx="81" cy="304" r="0.7927774090731665" fill="hsl(197, 100%, 50%)" /><circle cx="290" cy="317" r="0.11934592243380658" fill="hsl(197, 100%, 56%)" /><circle cx="255" cy="79" r="0.14532128540319722" fill="hsl(197, 100%, 73%)" /><circle cx="33" cy="184" r="0.6560859896511326" fill="hsl(197, 100%, 75%)" /><circle cx="315" cy="97" r="0.68377368237549" fill="hsl(197, 100%, 86%)" /><circle cx="261" cy="210" r="0.37767860830597" fill="hsl(197, 100%, 90%)" /><circle cx="90" cy="170" r="0.7936873815963854" fill="hsl(197, 100%, 91%)" /><circle cx="310" cy="138" r="0.23273090445915223" fill="hsl(197, 100%, 59%)" /><circle cx="51" cy="27" r="0.6987878827888635" fill="hsl(197, 100%, 92%)" /><circle cx="247" cy="187" r="0.14935354347393784" fill="hsl(197, 100%, 74%)" /><circle cx="87" cy="20" r="0.7845930364696004" fill="hsl(197, 100%, 62%)" /><circle cx="149" cy="62" r="0.6941287081315659" fill="hsl(197, 100%, 80%)" /><circle cx="121" cy="89" r="0.5697732062631866" fill="hsl(197, 100%, 95%)" /><circle cx="120" cy="171" r="0.3523077504494311" fill="hsl(197, 100%, 59%)" /><circle cx="301" cy="216" r="0.777219861703843" fill="hsl(197, 100%, 54%)" /><circle cx="139" cy="250" r="0.8718829439985659" fill="hsl(197, 100%, 90%)" /><circle cx="251" cy="186" r="0.8306756394584298" fill="hsl(197, 100%, 53%)" /><circle cx="52" cy="91" r="0.9470475682860311" fill="hsl(197, 100%, 92%)" /><circle cx="304" cy="101" r="0.9402920215190507" fill="hsl(197, 100%, 86%)" /><circle cx="207" cy="225" r="0.6505160567068962" fill="hsl(197, 100%, 83%)" /><circle cx="296" cy="97" r="0.1382714380643557" fill="hsl(197, 100%, 71%)" /><circle cx="22" cy="271" r="0.39710192217204543" fill="hsl(197, 100%, 85%)" /><circle cx="10" cy="319" r="0.8613466580029369" fill="hsl(197, 100%, 62%)" /><circle cx="73" cy="288" r="0.698562886899933" fill="hsl(197, 100%, 55%)" /><circle cx="150" cy="179" r="0.13291703398988233" fill="hsl(197, 100%, 50%)" /><circle cx="172" cy="155" r="0.9310668104110749" fill="hsl(197, 100%, 83%)" /><circle cx="44" cy="127" r="0.5873087558896043" fill="hsl(197, 100%, 55%)" /><circle cx="152" cy="31" r="0.9572422165987396" fill="hsl(197, 100%, 90%)" /><circle cx="116" cy="72" r="0.8412858295922837" fill="hsl(197, 100%, 53%)" /><circle cx="308" cy="19" r="0.6531639164319137" fill="hsl(197, 100%, 53%)" /><circle cx="61" cy="87" r="0.3135837983014339" fill="hsl(197, 100%, 85%)" /><circle cx="211" cy="63" r="0.49354582604588493" fill="hsl(197, 100%, 93%)" /><circle cx="66" cy="122" r="0.5568020641144713" fill="hsl(197, 100%, 84%)" /><circle cx="42" cy="187" r="0.17596269487485672" fill="hsl(197, 100%, 62%)" /><circle cx="129" cy="288" r="0.5532789475641261" fill="hsl(197, 100%, 50%)" /><circle cx="256" cy="48" r="0.5083712174747784" fill="hsl(197, 100%, 53%)" /><circle cx="240" cy="130" r="0.8728601224373342" fill="hsl(197, 100%, 84%)" /><circle cx="160" cy="163" r="0.9160834341213483" fill="hsl(197, 100%, 69%)" /><circle cx="9" cy="116" r="0.5327021263001593" fill="hsl(197, 100%, 59%)" /><circle cx="153" cy="53" r="0.4868979476230043" fill="hsl(197, 100%, 75%)" /><circle cx="16" cy="124" r="0.5200582967764521" fill="hsl(197, 100%, 83%)" /><circle cx="95" cy="141" r="0.13054512601089538" fill="hsl(197, 100%, 58%)" /><circle cx="33" cy="248" r="0.9400423500754079" fill="hsl(197, 100%, 67%)" /><circle cx="78" cy="24" r="0.8263020634148409" fill="hsl(197, 100%, 75%)" /><circle cx="152" cy="148" r="0.9312866201574067" fill="hsl(197, 100%, 88%)" /><circle cx="210" cy="215" r="0.4496726590241309" fill="hsl(197, 100%, 62%)" /><circle cx="156" cy="93" r="0.5275624961894364" fill="hsl(197, 100%, 61%)" /><circle cx="156" cy="53" r="0.5031763710088597" fill="hsl(197, 100%, 51%)" /><circle cx="285" cy="57" r="0.6935053042669076" fill="hsl(197, 100%, 53%)" /><circle cx="121" cy="89" r="0.6436090662350947" fill="hsl(197, 100%, 90%)" /><circle cx="288" cy="186" r="0.666862862311632" fill="hsl(197, 100%, 51%)" /><circle cx="241" cy="183" r="0.22255811668070025" fill="hsl(197, 100%, 54%)" /><circle cx="95" cy="130" r="0.9217024352449331" fill="hsl(197, 100%, 74%)" /><circle cx="70" cy="302" r="0.30268991533677014" fill="hsl(197, 100%, 64%)" /><circle cx="214" cy="217" r="0.5362739004411137" fill="hsl(197, 100%, 57%)" /><circle cx="30" cy="266" r="0.7280028162683599" fill="hsl(197, 100%, 74%)" /><circle cx="174" cy="152" r="0.8584311998015617" fill="hsl(197, 100%, 67%)" /><circle cx="132" cy="175" r="0.6222281812497332" fill="hsl(197, 100%, 82%)" /><circle cx="89" cy="15" r="0.10434767734002877" fill="hsl(197, 100%, 67%)" /><circle cx="259" cy="4" r="0.7589550758084789" fill="hsl(197, 100%, 81%)" /><circle cx="318" cy="248" r="0.8698938607310144" fill="hsl(197, 100%, 51%)" /><circle cx="202" cy="237" r="0.20423311063200394" fill="hsl(197, 100%, 63%)" /><circle cx="175" cy="302" r="0.9716341956712299" fill="hsl(197, 100%, 70%)" /><circle cx="203" cy="53" r="0.7432816171262827" fill="hsl(197, 100%, 84%)" /><circle cx="39" cy="164" r="0.6439968375276655" fill="hsl(197, 100%, 63%)" /><circle cx="238" cy="258" r="0.12487238878464156" fill="hsl(197, 100%, 84%)" /><circle cx="154" cy="27" r="0.37395226064718323" fill="hsl(197, 100%, 73%)" /><circle cx="16" cy="140" r="0.6987539003005032" fill="hsl(197, 100%, 64%)" /><circle cx="200" cy="7" r="0.9286788072148343" fill="hsl(197, 100%, 75%)" /><circle cx="127" cy="186" r="0.9016550993885069" fill="hsl(197, 100%, 67%)" /><circle cx="299" cy="121" r="0.8131995134859762" fill="hsl(197, 100%, 86%)" /><circle cx="250" cy="74" r="0.15217969302870715" fill="hsl(197, 100%, 94%)" /><circle cx="46" cy="244" r="0.30094218102924886" fill="hsl(197, 100%, 55%)" /><circle cx="319" cy="246" r="0.33520692904737637" fill="hsl(197, 100%, 75%)" /><circle cx="138" cy="176" r="0.9705482813463843" fill="hsl(197, 100%, 77%)" /><circle cx="286" cy="81" r="0.4667708185447369" fill="hsl(197, 100%, 83%)" /><circle cx="173" cy="271" r="0.1644323743910468" fill="hsl(197, 100%, 68%)" /><circle cx="27" cy="157" r="0.3032145961908832" fill="hsl(197, 100%, 53%)" /><circle cx="266" cy="308" r="0.27802433506926694" fill="hsl(197, 100%, 90%)" /><circle cx="161" cy="165" r="0.6542999072943493" fill="hsl(197, 100%, 70%)" /><circle cx="197" cy="50" r="0.6572086636737696" fill="hsl(197, 100%, 86%)" /><circle cx="288" cy="182" r="0.6308876859244608" fill="hsl(197, 100%, 72%)" /><circle cx="250" cy="98" r="0.5060993146808356" fill="hsl(197, 100%, 68%)" /><circle cx="32" cy="134" r="0.6555798939814749" fill="hsl(197, 100%, 79%)" /><circle cx="308" cy="189" r="0.28542243233365283" fill="hsl(197, 100%, 76%)" /><circle cx="306" cy="13" r="0.4989318732208352" fill="hsl(197, 100%, 77%)" /><circle cx="46" cy="89" r="0.6308663443239254" fill="hsl(197, 100%, 61%)" /><circle cx="285" cy="185" r="0.18802799839033757" fill="hsl(197, 100%, 87%)" /><circle cx="262" cy="157" r="0.9444496660039335" fill="hsl(197, 100%, 61%)" /><circle cx="104" cy="110" r="0.7548412353220992" fill="hsl(197, 100%, 77%)" /><circle cx="43" cy="174" r="0.872205878187907" fill="hsl(197, 100%, 92%)" /><circle cx="29" cy="174" r="0.8565212683680699" fill="hsl(197, 100%, 79%)" /><circle cx="285" cy="262" r="0.25124977881574617" fill="hsl(197, 100%, 51%)" /><circle cx="123" cy="126" r="0.8693313452873362" fill="hsl(197, 100%, 70%)" />
    </pattern>
    <rect x="0" y="0" width="100%" height="100%" fill="url(#pattern)" filter="url(#blur)" />
  </svg>
