
  <svg viewBox="0 0 320 320" xmlns="http://www.w3.org/2000/svg">
    <filter id="blur">
      <feGaussianBlur stdDeviation=".1" />
    </filter>
    <pattern id="pattern" width="640" height="640" patternUnits="userSpaceOnUse">
      <circle cx="62" cy="185" r="0.9817608027668374" fill="hsl(197, 100%, 93%)" /><circle cx="193" cy="189" r="0.3575782465622588" fill="hsl(197, 100%, 87%)" /><circle cx="5" cy="88" r="0.8607695989903147" fill="hsl(197, 100%, 92%)" /><circle cx="251" cy="8" r="0.22182388659806568" fill="hsl(197, 100%, 84%)" /><circle cx="83" cy="307" r="0.5320198444493361" fill="hsl(197, 100%, 61%)" /><circle cx="222" cy="254" r="0.3561648223801299" fill="hsl(197, 100%, 60%)" /><circle cx="18" cy="261" r="0.960292917640067" fill="hsl(197, 100%, 85%)" /><circle cx="220" cy="50" r="0.9590223291639876" fill="hsl(197, 100%, 66%)" /><circle cx="148" cy="102" r="0.9137591219726552" fill="hsl(197, 100%, 58%)" /><circle cx="35" cy="109" r="0.9343439918789177" fill="hsl(197, 100%, 72%)" /><circle cx="9" cy="197" r="0.2101442184646965" fill="hsl(197, 100%, 55%)" /><circle cx="280" cy="211" r="0.7002425311365176" fill="hsl(197, 100%, 78%)" /><circle cx="250" cy="292" r="0.3747013799827278" fill="hsl(197, 100%, 82%)" /><circle cx="152" cy="307" r="0.7584429615440162" fill="hsl(197, 100%, 63%)" /><circle cx="245" cy="151" r="0.425159786718902" fill="hsl(197, 100%, 60%)" /><circle cx="90" cy="234" r="0.6076177537976497" fill="hsl(197, 100%, 52%)" /><circle cx="150" cy="90" r="0.9259214482962065" fill="hsl(197, 100%, 66%)" /><circle cx="254" cy="311" r="0.8883763126511159" fill="hsl(197, 100%, 87%)" /><circle cx="206" cy="231" r="0.8513667588738298" fill="hsl(197, 100%, 64%)" /><circle cx="20" cy="156" r="0.37721243193264664" fill="hsl(197, 100%, 93%)" /><circle cx="47" cy="123" r="0.5516539325990021" fill="hsl(197, 100%, 88%)" /><circle cx="311" cy="300" r="0.5476346633343625" fill="hsl(197, 100%, 51%)" /><circle cx="187" cy="139" r="0.515578520753883" fill="hsl(197, 100%, 91%)" /><circle cx="56" cy="96" r="0.27212897363856814" fill="hsl(197, 100%, 89%)" /><circle cx="130" cy="105" r="0.30282757508251484" fill="hsl(197, 100%, 74%)" /><circle cx="238" cy="51" r="0.8196870354896596" fill="hsl(197, 100%, 61%)" /><circle cx="92" cy="106" r="0.439555268667976" fill="hsl(197, 100%, 78%)" /><circle cx="200" cy="251" r="0.5279726338033718" fill="hsl(197, 100%, 64%)" /><circle cx="196" cy="53" r="0.6335849423181791" fill="hsl(197, 100%, 65%)" /><circle cx="98" cy="210" r="0.1187211631934567" fill="hsl(197, 100%, 57%)" /><circle cx="259" cy="60" r="0.27566589429530136" fill="hsl(197, 100%, 61%)" /><circle cx="173" cy="119" r="0.23617950150007072" fill="hsl(197, 100%, 78%)" /><circle cx="133" cy="176" r="0.767465069057883" fill="hsl(197, 100%, 78%)" /><circle cx="161" cy="275" r="0.2834658232203344" fill="hsl(197, 100%, 76%)" /><circle cx="236" cy="217" r="0.5734555517414841" fill="hsl(197, 100%, 64%)" /><circle cx="17" cy="128" r="0.7979629999314284" fill="hsl(197, 100%, 58%)" /><circle cx="180" cy="173" r="0.9802513109782839" fill="hsl(197, 100%, 88%)" /><circle cx="203" cy="314" r="0.8293054621637976" fill="hsl(197, 100%, 70%)" /><circle cx="313" cy="264" r="0.5473104245296059" fill="hsl(197, 100%, 62%)" /><circle cx="244" cy="264" r="0.3573147552944572" fill="hsl(197, 100%, 72%)" /><circle cx="190" cy="87" r="0.40670078783786245" fill="hsl(197, 100%, 57%)" /><circle cx="147" cy="290" r="0.7885720168586451" fill="hsl(197, 100%, 77%)" /><circle cx="284" cy="126" r="0.3997601198315529" fill="hsl(197, 100%, 70%)" /><circle cx="114" cy="242" r="0.39690946631442436" fill="hsl(197, 100%, 63%)" /><circle cx="302" cy="137" r="0.1991346061854702" fill="hsl(197, 100%, 95%)" /><circle cx="308" cy="97" r="0.12271248950788555" fill="hsl(197, 100%, 62%)" /><circle cx="95" cy="308" r="0.9424773812804111" fill="hsl(197, 100%, 55%)" /><circle cx="194" cy="290" r="0.7679282816410835" fill="hsl(197, 100%, 80%)" /><circle cx="112" cy="77" r="0.2731428502659976" fill="hsl(197, 100%, 68%)" /><circle cx="74" cy="213" r="0.7396191036260603" fill="hsl(197, 100%, 53%)" /><circle cx="200" cy="90" r="0.9238930711316415" fill="hsl(197, 100%, 56%)" /><circle cx="174" cy="178" r="0.1709720089006116" fill="hsl(197, 100%, 75%)" /><circle cx="61" cy="76" r="0.5003788635211519" fill="hsl(197, 100%, 67%)" /><circle cx="288" cy="140" r="0.48992141165662273" fill="hsl(197, 100%, 73%)" /><circle cx="9" cy="76" r="0.1974967023122176" fill="hsl(197, 100%, 77%)" /><circle cx="279" cy="300" r="0.5612746843451653" fill="hsl(197, 100%, 80%)" /><circle cx="160" cy="41" r="0.8067016084075402" fill="hsl(197, 100%, 84%)" /><circle cx="52" cy="159" r="0.16308762338515873" fill="hsl(197, 100%, 70%)" /><circle cx="211" cy="147" r="0.3231116056280887" fill="hsl(197, 100%, 81%)" /><circle cx="229" cy="143" r="0.2331843245112361" fill="hsl(197, 100%, 51%)" /><circle cx="107" cy="143" r="0.27884981282587784" fill="hsl(197, 100%, 54%)" /><circle cx="153" cy="261" r="0.7210564968855449" fill="hsl(197, 100%, 60%)" /><circle cx="300" cy="44" r="0.7244313889679996" fill="hsl(197, 100%, 87%)" /><circle cx="172" cy="191" r="0.559939040478501" fill="hsl(197, 100%, 57%)" /><circle cx="2" cy="86" r="0.46662419633935415" fill="hsl(197, 100%, 78%)" /><circle cx="233" cy="155" r="0.4547477449659896" fill="hsl(197, 100%, 50%)" /><circle cx="9" cy="113" r="0.4775913228958052" fill="hsl(197, 100%, 73%)" /><circle cx="159" cy="136" r="0.8064880450579418" fill="hsl(197, 100%, 91%)" /><circle cx="245" cy="283" r="0.5625824190277626" fill="hsl(197, 100%, 75%)" /><circle cx="77" cy="200" r="0.23689981226810616" fill="hsl(197, 100%, 63%)" /><circle cx="178" cy="311" r="0.11618310282446725" fill="hsl(197, 100%, 84%)" /><circle cx="235" cy="82" r="0.4009537939568528" fill="hsl(197, 100%, 83%)" /><circle cx="168" cy="217" r="0.229974705087945" fill="hsl(197, 100%, 58%)" /><circle cx="128" cy="28" r="0.9908808702801576" fill="hsl(197, 100%, 84%)" /><circle cx="26" cy="104" r="0.8152939199066792" fill="hsl(197, 100%, 83%)" /><circle cx="286" cy="73" r="0.9386360134452388" fill="hsl(197, 100%, 58%)" /><circle cx="142" cy="316" r="0.8410292663594069" fill="hsl(197, 100%, 85%)" /><circle cx="87" cy="25" r="0.8843339798056992" fill="hsl(197, 100%, 78%)" /><circle cx="30" cy="244" r="0.4720218215722993" fill="hsl(197, 100%, 59%)" /><circle cx="199" cy="44" r="0.3898287698948807" fill="hsl(197, 100%, 55%)" /><circle cx="188" cy="309" r="0.10741066316994036" fill="hsl(197, 100%, 80%)" /><circle cx="181" cy="99" r="0.35576950665776874" fill="hsl(197, 100%, 50%)" /><circle cx="91" cy="299" r="0.6068832391108157" fill="hsl(197, 100%, 93%)" /><circle cx="197" cy="55" r="0.48331115059248886" fill="hsl(197, 100%, 91%)" /><circle cx="317" cy="170" r="0.46051432703403095" fill="hsl(197, 100%, 88%)" /><circle cx="135" cy="302" r="0.46284472668601195" fill="hsl(197, 100%, 58%)" /><circle cx="319" cy="69" r="0.1518305537870892" fill="hsl(197, 100%, 86%)" /><circle cx="19" cy="221" r="0.22179070113364024" fill="hsl(197, 100%, 70%)" /><circle cx="248" cy="144" r="0.45391917667984927" fill="hsl(197, 100%, 60%)" /><circle cx="94" cy="81" r="0.4000184219682015" fill="hsl(197, 100%, 58%)" /><circle cx="246" cy="227" r="0.596691678987254" fill="hsl(197, 100%, 65%)" /><circle cx="232" cy="228" r="0.8787900972813503" fill="hsl(197, 100%, 55%)" /><circle cx="222" cy="208" r="0.8515665275660182" fill="hsl(197, 100%, 95%)" /><circle cx="148" cy="155" r="0.6807142039943227" fill="hsl(197, 100%, 59%)" /><circle cx="8" cy="227" r="0.26908854865474385" fill="hsl(197, 100%, 82%)" /><circle cx="260" cy="66" r="0.6212502472988516" fill="hsl(197, 100%, 77%)" /><circle cx="115" cy="90" r="0.23687990633330205" fill="hsl(197, 100%, 86%)" /><circle cx="7" cy="247" r="0.7327769287932265" fill="hsl(197, 100%, 86%)" /><circle cx="145" cy="96" r="0.15051867903106142" fill="hsl(197, 100%, 78%)" /><circle cx="162" cy="107" r="0.5735055196695178" fill="hsl(197, 100%, 52%)" />
    </pattern>
    <rect x="0" y="0" width="100%" height="100%" fill="url(#pattern)" filter="url(#blur)" />
  </svg>
